<svg width="20" height="24" viewBox="0 0 20 24" fill="none" xmlns="http://www.w3.org/2000/svg">
<path d="M0.928467 18.4552C1.69879 16.4748 4.18699 15.9158 7.38756 16.1544C15.5373 16.5737 15.4589 12.204 12.3231 7.60253C11.0142 5.68355 10.2575 3.88045 10.4382 2.40116C10.5097 1.83535 10.7177 1.31726 11.0824 0.857117" stroke="white" stroke-width="1.5" stroke-miterlimit="10" stroke-linecap="round" stroke-linejoin="round"/>
<path d="M8.76722 22.982C10.0965 21.3254 9.33644 18.8918 7.52993 16.2366C3.08866 9.38889 6.913 7.27222 12.4654 7.68464C14.6639 7.84825 16.5215 7.63693 17.7247 6.84615C18.2735 6.48485 18.6859 6.00426 18.9279 5.38391" stroke="white" stroke-width="1.5" stroke-miterlimit="10" stroke-linecap="round" stroke-linejoin="round"/>
<path d="M9.29925 13.131L5.5874 10.9905" stroke="white" stroke-width="1.5" stroke-miterlimit="10" stroke-linejoin="round"/>
<path d="M6.07768 19.2019L2.40332 17.0818" stroke="white" stroke-width="1.5" stroke-miterlimit="10" stroke-linejoin="round"/>
<path d="M17.7334 6.85542L14.1238 4.77283" stroke="white" stroke-width="1.5" stroke-miterlimit="10" stroke-linejoin="round"/>
<path d="M11.7937 11.2977L7.04224 8.55383" stroke="white" stroke-width="1.5" stroke-miterlimit="10" stroke-linejoin="round"/>
</svg>
