<svg width="23" height="24" viewBox="0 0 23 24" fill="none" xmlns="http://www.w3.org/2000/svg">
<path d="M3.78066 5.98972C5.19799 5.98972 6.34696 4.84075 6.34696 3.42342C6.34696 2.00609 5.19799 0.857117 3.78066 0.857117C2.36333 0.857117 1.21436 2.00609 1.21436 3.42342C1.21436 4.84075 2.36333 5.98972 3.78066 5.98972Z" stroke="white" stroke-width="1.5" stroke-miterlimit="10" stroke-linecap="round" stroke-linejoin="round"/>
<path d="M17.9599 8.37083C19.7331 8.37083 21.1706 6.93337 21.1706 5.16018C21.1706 3.38698 19.7331 1.94952 17.9599 1.94952C16.1867 1.94952 14.7493 3.38698 14.7493 5.16018C14.7493 6.93337 16.1867 8.37083 17.9599 8.37083Z" stroke="white" stroke-width="1.5" stroke-miterlimit="10" stroke-linecap="round" stroke-linejoin="round"/>
<path d="M11.2053 14.7511C13.1626 14.7511 14.7493 13.1644 14.7493 11.2071C14.7493 9.24988 13.1626 7.66321 11.2053 7.66321C9.24805 7.66321 7.66138 9.24988 7.66138 11.2071C7.66138 13.1644 9.24805 14.7511 11.2053 14.7511Z" stroke="white" stroke-width="1.5" stroke-miterlimit="10" stroke-linecap="round" stroke-linejoin="round"/>
<path d="M19.0712 18.9471C20.329 18.9471 21.3486 17.9275 21.3486 16.6697C21.3486 15.4119 20.329 14.3922 19.0712 14.3922C17.8134 14.3922 16.7937 15.4119 16.7937 16.6697C16.7937 17.9275 17.8134 18.9471 19.0712 18.9471Z" stroke="white" stroke-width="1.5" stroke-miterlimit="10" stroke-linecap="round" stroke-linejoin="round"/>
<path d="M5.72536 23.1431C7.14882 23.1431 8.30277 21.9892 8.30277 20.5657C8.30277 19.1422 7.14882 17.9883 5.72536 17.9883C4.3019 17.9883 3.14795 19.1422 3.14795 20.5657C3.14795 21.9892 4.3019 23.1431 5.72536 23.1431Z" stroke="white" stroke-width="1.5" stroke-miterlimit="10" stroke-linecap="round" stroke-linejoin="round"/>
<path d="M13.9124 8.71953L15.5492 7.27899" stroke="white" stroke-width="1.5" stroke-miterlimit="10" stroke-linecap="round" stroke-linejoin="round"/>
<path d="M5.46484 5.45587L8.66809 8.72948" stroke="white" stroke-width="1.5" stroke-miterlimit="10" stroke-linecap="round" stroke-linejoin="round"/>
<path d="M17.3534 15.1733L14.1687 13.1551" stroke="white" stroke-width="1.5" stroke-miterlimit="10" stroke-linecap="round" stroke-linejoin="round"/>
<path d="M6.87622 18.2881L9.3055 14.1998" stroke="white" stroke-width="1.5" stroke-miterlimit="10" stroke-linecap="round" stroke-linejoin="round"/>
</svg>
