<svg width="23" height="21" viewBox="0 0 23 21" fill="none" xmlns="http://www.w3.org/2000/svg">
<path fill-rule="evenodd" clip-rule="evenodd" d="M0.25 1.21429C0.25 0.800081 0.585786 0.464294 1 0.464294H21.3405C21.7548 0.464294 22.0905 0.800081 22.0905 1.21429V14.7747C22.0905 15.1889 21.7548 15.5247 21.3405 15.5247H9.78556L5.34395 19.9663C5.12945 20.1808 4.80686 20.2449 4.5266 20.1288C4.24635 20.0128 4.06362 19.7393 4.06362 19.4359V15.5247H1C0.585786 15.5247 0.25 15.1889 0.25 14.7747V1.21429ZM20.5905 14.0247H9.48691C9.29102 14.0216 9.09414 14.0948 8.94466 14.2442L5.56362 17.6253V14.7936L5.56385 14.7747C5.56385 14.464 5.37497 14.1975 5.10579 14.0836C5.09457 14.0789 5.08321 14.0744 5.07173 14.0702C4.99125 14.0407 4.90431 14.0246 4.81362 14.0246L4.80159 14.0247H1.75V1.96429H20.5905V14.0247ZM4.39007 4.70146H3.64007V6.20146H4.39007H17.5267H18.2767V4.70146H17.5267H4.39007ZM3.64007 7.24443H4.39007H17.5267H18.2767V8.74443H17.5267H4.39007H3.64007V7.24443ZM4.39007 9.7874H3.64007V11.2874H4.39007H13.7128H14.4628V9.7874H13.7128H4.39007Z" fill="white"/>
</svg>
