<svg width="395" height="299" viewBox="0 0 395 299" fill="none" xmlns="http://www.w3.org/2000/svg">
<path d="M139.685 168.352C138.765 162.573 147.98 160.309 150.384 163.828C149.614 158.306 153.948 151.061 161.389 150.441C175.44 149.092 171.368 159.823 178.123 159.98C184.292 159.862 179.696 150.692 193.741 155.289C197.088 156.315 198.8 160.175 201.171 164.944C205.979 159.505 208.924 163.047 209.811 168.358C186.559 171.76 162.936 171.759 139.685 168.352Z" fill="#D8DAF2"/>
<path d="M304.827 74.7549C304.175 70.1977 310.673 68.4184 312.363 71.1906C311.805 66.8398 314.878 61.1504 320.127 60.6484C330.028 59.5886 327.161 68.0335 331.919 68.1562C336.27 68.0614 333.035 60.8492 342.919 64.4637C345.284 65.2669 346.483 68.3068 348.156 72.0608C351.548 67.7825 353.623 70.5715 354.247 74.7549C337.883 77.4323 321.192 77.4323 304.827 74.7549Z" fill="#D8DAF2"/>
<path d="M279.368 261.124C278.458 268.213 282.329 276.932 296.408 278.661C312.539 278.94 318.508 268.832 318.028 261.124H279.368Z" fill="#015288"/>
<path d="M317.265 123.74H280.027V257.515H317.265V123.74Z" fill="#FDAC19"/>
<path d="M317.622 123.946L298.646 89.3132L279.676 123.946H317.622Z" fill="#FCD4CA"/>
<g style="mix-blend-mode:multiply">
<path d="M305.864 102.477L298.646 89.3132L291.434 102.477H305.864Z" fill="#03476D"/>
</g>
<path d="M307.982 124.186H306.57V257.515H307.982V124.186Z" fill="white"/>
<path d="M290.724 124.186H289.312V257.515H290.724V124.186Z" fill="white"/>
<path d="M318.787 256.143H278.504V261.436H318.787V256.143Z" fill="#02797D"/>
<path d="M391.242 235.934C368.596 231.834 337.633 245.768 315.784 262.256C293.367 278.493 280.086 297.28 279.812 296.979C292.569 298.986 305.158 301.941 317.474 305.82C318.166 298.01 318.666 290.168 318.975 282.292C326.732 286.353 334.251 290.742 341.532 295.461C346.619 292.951 351.825 290.577 357.15 288.338C354.595 283.53 351.873 278.75 348.984 273.998C354.908 277.608 360.69 281.405 366.331 285.388C365.779 285.081 407.122 238.639 391.242 235.934Z" fill="#02797D"/>
<g style="mix-blend-mode:multiply">
<path d="M292.403 299.276C301.327 294.864 312.522 285.41 322.88 272.926C329.802 264.521 335.107 255.975 337.985 248.183C303.754 265.692 279.663 297.073 279.813 296.978C284.023 297.644 288.219 298.41 292.403 299.276Z" fill="#02797D"/>
</g>
<path d="M329.963 163.31C331.982 176.987 333.451 190.621 334.369 204.213C327.821 205.328 321.371 206.609 315.02 208.056C320.505 210.001 325.93 212.077 331.296 214.286C331.586 214.23 330.482 233.708 322.193 253.064C314.133 272.648 298.888 292.109 276.22 297.391C254.053 303.404 263.43 254.687 263.458 254.492C270.385 255.351 277.265 256.453 284.096 257.799C284.397 257.599 264.149 242.421 265.466 238.015C268.812 228.409 282.952 208.535 298.442 192.365C313.609 175.988 330.074 163.31 329.963 163.31Z" fill="#02797D"/>
<path d="M271.808 296.237L271.289 296.025C275.751 285.142 279.728 273.429 283.962 261.023C294.27 230.797 304.935 199.538 323.515 175.949L323.95 176.295C305.431 199.806 294.783 231.02 284.486 261.202C280.253 273.629 276.253 285.354 271.808 296.237Z" fill="#096666"/>
<path d="M134.23 300.699L134.543 244.602C134.571 243.611 134.207 242.649 133.529 241.926C132.85 241.203 131.914 240.777 130.923 240.742L74.1676 240.374C73.0521 240.292 71.9721 239.945 71.0169 239.363C70.0616 238.781 69.2583 237.981 68.6733 237.027L66.9163 233.926C66.3315 232.974 65.5291 232.174 64.5749 231.592C63.6207 231.01 62.5421 230.663 61.4277 230.579L44.4151 230.468C43.4238 230.493 42.4825 230.908 41.7961 231.624C41.1098 232.339 40.7339 233.297 40.7504 234.289L40.3711 300.666L134.23 300.699Z" fill="#FDAC19"/>
<path d="M120.085 247.887H52.8047V282.799H120.085V247.887Z" fill="#EFEFEF"/>
<path d="M73.4474 268.749L59.168 268.849V254.179L73.0402 255.094L73.4474 268.749Z" fill="#EA7052"/>
<path d="M65.571 267.092H65.4037C64.0204 266.93 62.9717 264.861 62.1016 260.611L62.6594 260.499C63.6466 265.335 64.7343 266.451 65.4762 266.54C67.289 266.752 69.6875 261.587 71.7904 257.03C72.3482 255.864 72.906 254.659 73.4247 253.56L73.9267 253.805C73.3689 254.921 72.8111 256.104 72.298 257.264C69.9497 262.306 67.7408 267.092 65.571 267.092Z" fill="white"/>
<path d="M83.4449 255.139C83.3335 255.147 83.2216 255.147 83.1102 255.139C82.6028 255.086 82.1158 254.911 81.6904 254.629C81.2651 254.348 80.914 253.967 80.6671 253.521C78.8599 250.23 82.0058 243.102 83.3445 240.056C83.4672 239.783 83.5732 239.548 83.6513 239.364C83.813 238.979 83.9859 238.489 84.2091 237.914C85.3246 234.763 87.1988 229.486 91.5719 230.897C96.3912 232.448 95.733 235.638 95.1529 238.455C94.988 239.162 94.8725 239.88 94.8071 240.603L94.2493 240.569C94.3164 239.818 94.4357 239.073 94.6063 238.338C95.1641 235.627 95.7218 232.821 91.399 231.421C87.5391 230.183 85.8211 234.947 84.7055 238.115C84.4991 238.673 84.3206 239.191 84.1477 239.593L83.8409 240.296C82.6417 243.007 79.4678 250.213 81.1412 253.264C81.3457 253.636 81.6382 253.952 81.9931 254.185C82.3481 254.417 82.7546 254.559 83.1771 254.598C83.4217 254.631 83.6706 254.612 83.9072 254.542C84.1438 254.472 84.3627 254.352 84.5493 254.19C86.9869 252.277 88.1638 244.842 88.3813 242.393L88.9391 242.438C88.6993 245.137 87.5056 252.584 84.9007 254.625C84.4878 254.957 83.9744 255.138 83.4449 255.139Z" fill="black"/>
<path d="M274.321 300.688L298.752 148.523L269.379 136.787L242.945 300.688H274.321Z" fill="white"/>
<path d="M248.434 299.834L247.938 299.728C257.096 256.388 263.762 203.136 270.21 160.281C271.192 153.751 272.177 147.221 273.166 140.691L273.668 140.769C272.683 147.295 271.697 153.825 270.712 160.359C264.264 203.219 257.593 256.477 248.434 299.834ZM254.843 299.672L254.335 299.583C262.256 261.854 268.113 214.135 273.774 176.641C275.414 165.775 277.121 154.547 278.833 143.486L279.335 143.564C277.612 154.619 275.916 165.875 274.271 176.713C268.62 214.202 262.769 261.927 254.843 299.672ZM259.913 299.851L259.417 299.75C269.072 254.146 277.69 197.608 285.761 145.287L286.258 145.365C278.181 197.692 269.563 254.246 259.913 299.851ZM265.262 299.723L264.766 299.611C274.695 254.352 283.34 198.316 291.149 146.704L291.652 146.777C283.82 198.406 275.191 254.447 265.262 299.723ZM270.918 299.695L270.422 299.583C270.706 298.278 270.98 296.973 271.275 295.679C275.537 275.832 279.592 245.344 284.043 218.932C287.948 195.784 291.573 172.212 295.087 149.421L295.589 149.493C292.075 172.29 288.439 195.862 284.54 219.016C280.077 245.438 276.033 275.911 271.772 295.79L270.918 299.695Z" fill="#D8DAF2"/>
<path d="M244.647 300.688L269.379 136.787L194.831 130.556L167.828 300.688H244.647Z" fill="#0086CA"/>
<path d="M226.686 300.688L231.427 188.812L208.508 300.688H226.686Z" fill="#015288"/>
<path d="M211.59 300.688L231.431 188.812L201.745 180.813L180.359 300.688H211.59Z" fill="white"/>
<path d="M186.1 299.695L185.609 299.567C192.777 271.437 197.546 233.19 202.153 204.826C203.269 197.865 204.457 190.664 205.645 183.585L206.142 183.669C204.954 190.742 203.788 197.949 202.655 204.91C198.043 233.273 193.279 271.538 186.1 299.695ZM192.42 299.857L191.929 299.74C199.599 267.388 205.026 224.957 210.275 192.571L211.385 185.504L211.887 185.588L210.738 192.655C205.495 225.046 200.067 267.483 192.42 299.857ZM197.485 299.862L196.988 299.74C206.398 262.29 213.064 217.187 218.346 186.692L218.848 186.782C213.566 217.254 206.923 262.396 197.485 299.862ZM202.778 299.89L202.287 299.762C210.392 268.977 216.232 228.454 221.871 197.915L223.779 187.613L224.281 187.708C223.641 191.136 223.005 194.568 222.373 198.004C216.723 228.554 210.883 269.089 202.778 299.89ZM208.429 299.728L207.938 299.595C214.213 276.418 218.396 243.174 222.44 219.669C224.147 209.757 225.91 199.51 227.801 189.509L228.297 189.604C226.406 199.6 224.644 209.846 222.937 219.758C218.893 243.275 214.732 276.53 208.429 299.728Z" fill="#D8DAF2"/>
<path d="M181.999 300.688L201.744 180.813L127.056 177.857L105.57 300.688H181.999Z" fill="#EA7052"/>
<path d="M127.922 224.137L134.548 199.538L182.329 201.423L179.841 229.904L127.922 224.137Z" fill="white"/>
<path d="M134.615 206.321L134.42 207.035C134.23 207.755 133.968 208.708 133.968 208.708L134.459 208.837L135.123 206.388L134.632 206.254L134.615 206.321ZM133.293 211.224L133.143 211.782V211.821V211.849L132.663 213.628L133.154 213.762L133.812 211.313L133.321 211.179L133.293 211.224ZM131.977 216.121L131.375 218.353V218.397L131.347 218.503L131.837 218.637L132.496 216.188L132.01 216.055L131.977 216.121ZM130.655 221.019L130.242 222.558L130.75 222.614L131.179 222.659L131.235 222.157L130.884 222.118L131.146 221.153L130.655 221.019ZM133.756 222.436L133.7 222.943L136.222 223.222L136.277 222.715L133.756 222.436ZM138.776 222.993L138.721 223.495L141.242 223.774L141.303 223.272L138.776 222.993ZM143.796 223.551L143.746 224.059L144.538 224.148H144.695L146.267 224.327L146.323 223.819L143.796 223.54V223.551ZM148.817 224.109L148.766 224.611L149.653 224.711L151.265 224.89L151.321 224.388L148.794 224.109H148.817ZM153.865 224.667L153.809 225.169L156.33 225.453L156.386 224.946L153.865 224.667ZM158.885 225.225L158.829 225.727L161.35 226.005L161.406 225.503L158.885 225.225ZM163.905 225.782L163.849 226.284L165.31 226.446H165.344L166.37 226.563L166.426 226.056L163.905 225.777V225.782ZM168.925 226.34L168.869 226.848L170.95 227.076H171.223L171.547 227.11L171.602 226.608L169.081 226.323L168.925 226.34ZM173.945 226.898L173.889 227.4L176.41 227.684L176.466 227.177L173.945 226.898ZM177.822 224.388L177.604 226.915L178.106 226.959L178.324 224.483L177.816 224.438L177.822 224.388ZM178.262 219.334L178.045 221.856L178.547 221.906C178.547 221.906 178.547 221.588 178.614 221.186L178.77 219.418L178.262 219.379V219.334ZM178.703 214.275L178.485 216.802L178.987 216.847C178.987 216.847 179.071 215.932 179.132 215.207L179.205 214.353L178.697 214.309L178.703 214.275ZM179.144 209.222L178.926 211.748L179.428 211.793L179.651 209.266L179.144 209.222ZM179.584 204.168L179.367 206.695L179.874 206.739L180.031 204.921C180.064 204.536 180.092 204.241 180.092 204.241L179.584 204.196V204.168ZM176.176 202.991V203.499L178.709 203.599V203.097L177.314 203.041L176.198 202.991H176.176ZM171.111 202.79V203.303L173.644 203.398V202.891L171.111 202.79ZM166.036 202.595V203.103L168.568 203.203V202.695L166.03 202.595H166.036ZM160.965 202.394V202.902L163.498 203.002V202.495L162.27 202.444H162.243L160.96 202.394H160.965ZM155.901 202.193V202.701L158.438 202.801V202.294L155.906 202.193H155.901ZM150.83 201.993V202.5L153.368 202.601V202.093L150.836 201.993H150.83ZM145.76 201.797V202.305L148.298 202.4V201.892L147.221 201.853L145.777 201.797H145.76ZM140.69 201.597V202.104L143.228 202.205V201.697L140.695 201.597H140.69ZM135.775 201.401L135.117 203.85L135.608 203.984L136.166 201.926L138.14 202.004V201.496L135.764 201.401H135.775Z" fill="#015288"/>
<path d="M227.22 148.88C227.11 148.888 227 148.888 226.891 148.88C226.383 148.827 225.895 148.653 225.468 148.371C225.042 148.089 224.69 147.709 224.442 147.262C222.641 143.971 225.781 136.843 227.125 133.797L227.426 133.105C227.588 132.721 227.767 132.224 227.984 131.655C229.1 128.504 230.968 123.227 235.347 124.638C240.166 126.189 239.508 129.379 238.928 132.196C238.765 132.901 238.651 133.617 238.588 134.338L238.03 134.305C238.092 133.553 238.21 132.808 238.381 132.073C238.939 129.357 239.497 126.557 235.18 125.157C231.32 123.913 229.63 128.677 228.486 131.85C228.28 132.408 228.101 132.927 227.928 133.329L227.622 134.031C226.428 136.742 223.248 143.949 224.922 147C225.128 147.372 225.422 147.687 225.777 147.919C226.133 148.152 226.54 148.294 226.963 148.333C227.208 148.366 227.458 148.347 227.694 148.275C227.931 148.204 228.15 148.083 228.336 147.92C230.773 146.013 231.944 138.577 232.162 136.123L232.72 136.173C232.48 138.873 231.286 146.319 228.676 148.361C228.263 148.693 227.75 148.876 227.22 148.88Z" fill="black"/>
<path fill-rule="evenodd" clip-rule="evenodd" d="M208.04 328.633C208.146 333.151 207.102 331.556 206.723 328.343C206.556 326.926 204.386 330.184 204.386 330.184C202.155 330.379 203.427 325.872 202.629 326.463C200.872 331.355 200.236 329.007 200.258 327.657C202.144 317.059 208.212 296.108 208.04 328.633Z" fill="#02797D"/>
<path d="M106.081 173.952L107.358 175.592C109.031 177.723 110.733 179.926 112.551 182.046L113.109 181.566C111.302 179.463 109.589 177.266 107.938 175.14L106.655 173.5L106.081 173.952ZM94.8078 178.738L94.4229 180.774C93.9209 183.429 93.4022 186.173 93.0117 188.946L93.7368 189.046C94.1273 186.296 94.646 183.557 95.1481 180.913L95.5329 178.872L94.8078 178.738ZM113.667 159.02L113.834 159.729L115.853 159.26C118.475 158.646 121.186 158.005 123.924 157.503L123.813 156.789C121.057 157.302 118.341 157.938 115.708 158.557L113.667 159.02Z" fill="#FDAC19"/>
<path d="M46.0448 304.386L3.3125 243.135L3.40732 242.979L68.0607 141.383L68.5181 141.667L3.95954 243.118L46.4854 304.074L46.0448 304.386Z" fill="#FDAC19"/>
<path d="M0.0101094 243.085C0.188602 246.013 2.5369 248.155 4.99675 248.044C7.4566 247.932 9.40887 245.344 9.23595 242.415C9.06304 239.487 6.8263 237.328 4.36645 237.44C1.9066 237.551 -0.162805 240.156 0.0101094 243.085ZM98.817 304.542L37.4601 304.414L36.3055 299.131L98.778 299.249C98.9955 299.249 98.817 304.542 98.817 304.542Z" fill="#0086CA"/>
<path d="M77.8759 126.295L64.7344 140.044L83.5932 188.416L118.026 149.064L77.8759 126.295Z" fill="#0086CA"/>
<path d="M66.8657 147.915C61.5834 143.118 59.4359 132.508 63.3125 127.31C67.998 121.035 76.8278 123.171 84.8265 127.667C85.1277 127.834 85.3843 128.007 85.6967 128.186C78.4398 134.645 73.4811 140.998 66.8657 147.915Z" fill="#015288"/>
<path d="M83.3308 126.568L65.0898 146.273L65.4869 146.641L83.7278 126.936L83.3308 126.568Z" fill="white"/>
<path d="M81.6477 183.256L81.2461 182.899L113.168 146.47L113.576 146.827L81.6477 183.256Z" fill="white"/>
<path opacity="0.7" d="M78.3198 300.247C78.1301 296.342 80.4171 294.083 83.8977 293.554C88.1313 292.934 91.7067 294.513 93.051 299.343C93.1012 299.522 93.1458 299.7 93.1905 299.901C87.9138 299.583 83.5407 300.141 78.3198 300.247ZM221.861 109.834L221.432 109.477C222.473 108.217 223.176 106.712 223.473 105.104L224.031 105.21C223.712 106.911 222.965 108.502 221.861 109.834ZM217.209 109.628C215.98 108.408 215.09 106.89 214.627 105.221L215.185 105.048C215.617 106.624 216.451 108.059 217.605 109.215L217.209 109.628ZM213.673 100.24C213.584 99.2586 213.539 98.2267 213.539 97.1669C213.539 96.5198 213.539 95.8505 213.589 95.1867L214.147 95.2146C214.114 95.8672 214.097 96.5254 214.097 97.1669C214.097 98.2099 214.142 99.2251 214.225 100.19L213.673 100.24ZM223.54 100.201C223.295 98.5646 222.89 96.956 222.33 95.3987L222.854 95.2146C223.429 96.8057 223.843 98.45 224.093 100.123L223.54 100.201ZM53.0352 94.0656V93.8369C53.0359 92.2261 53.1515 90.6175 53.381 89.0231L53.9388 89.1012C53.7139 90.6698 53.6002 92.2523 53.5985 93.8369V94.06L53.0352 94.0656ZM115.201 92.6432L115.123 92.0854C115.441 92.0408 115.759 91.985 116.088 91.9237C117.379 91.6711 118.625 91.2274 119.786 90.6073L120.054 91.0981C118.842 91.7451 117.541 92.2076 116.194 92.4703C115.859 92.5707 115.524 92.6432 115.201 92.6711V92.6432ZM110.114 92.3755C108.444 91.9212 106.924 91.0341 105.707 89.8041L106.103 89.408C107.25 90.5698 108.684 91.407 110.259 91.8344L110.114 92.3755ZM220.35 90.7969C219.636 89.3857 218.799 87.9299 217.868 86.4629L218.336 86.1673C219.279 87.6454 220.121 89.118 220.846 90.5459L220.35 90.7969ZM214.677 90.2391L214.119 90.1499C214.387 88.51 214.738 86.8478 215.174 85.2134L215.731 85.3585C215.291 86.9872 214.939 88.6271 214.677 90.2503V90.2391ZM124.047 87.9745L123.635 87.6008C124.735 86.3711 125.661 84.9952 126.385 83.5122L126.887 83.7576C126.14 85.2915 125.185 86.7145 124.047 87.9857V87.9745ZM103.013 85.4923C102.43 83.889 102.099 82.2049 102.031 80.5001L102.589 80.4722C102.656 82.1196 102.976 83.7469 103.537 85.2971L103.013 85.4923ZM54.9986 84.2764L54.4408 84.1146C54.9238 82.4994 55.5164 80.919 56.2146 79.3845L56.7221 79.6188C56.0409 81.1297 55.465 82.6859 54.9986 84.2764ZM298.959 82.6476C298.741 81.0131 298.305 79.4149 297.665 77.8952L298.178 77.6833C298.844 79.2554 299.294 80.9103 299.517 82.603L298.959 82.6476ZM215.028 82.3799C214.058 81.0858 213.009 79.7694 211.899 78.4753L212.323 78.1128C213.439 79.418 214.499 80.74 215.475 82.0452L215.028 82.3799ZM217.26 80.6173L216.735 80.4165C217.338 78.8323 218.013 77.2761 218.755 75.7924L219.257 76.0434C218.504 77.5311 217.832 79.0579 217.243 80.6173H217.26ZM128.571 78.9829L128.013 78.8602C128.386 77.2462 128.587 75.597 128.61 73.9405H129.168C129.153 75.6377 128.954 77.3283 128.577 78.9829H128.571ZM102.991 75.5637L102.433 75.4521C102.506 75.1119 102.584 74.7716 102.673 74.4314C103.016 73.1315 103.467 71.8627 104.023 70.6384L104.53 70.8671C103.989 72.063 103.549 73.3018 103.214 74.5708C103.141 74.8999 103.063 75.2346 102.996 75.5637H102.991ZM59.1095 75.2346L58.6354 74.939C59.5248 73.5098 60.499 72.1352 61.5526 70.8225L61.9877 71.1683C60.9501 72.4667 59.9891 73.8244 59.1095 75.2346ZM208.525 74.7939C207.381 73.6058 206.182 72.4177 204.96 71.2743L205.34 70.8671C206.567 72.0217 207.777 73.2098 208.926 74.4091L208.525 74.7939ZM295.272 73.578C294.333 72.2103 293.287 70.9195 292.143 69.718L292.55 69.3387C293.713 70.5545 294.778 71.8601 295.735 73.2433L295.272 73.578ZM221.722 71.7484L221.253 71.4416C222.175 70.0312 223.185 68.6805 224.277 67.3976L224.701 67.7602C223.623 69.0141 222.628 70.3371 221.722 71.7205V71.7484ZM128.114 69.0599C128.013 68.6359 127.896 68.212 127.768 67.8048C127.402 66.6521 126.94 65.5325 126.385 64.4581L126.875 64.2015C127.452 65.31 127.93 66.4673 128.303 67.6598C128.432 68.0837 128.554 68.5132 128.655 68.9539L128.114 69.0599ZM201.218 67.9443C199.946 66.8733 198.635 65.8135 197.313 64.8039L197.648 64.3633C198.981 65.3784 200.303 66.4382 201.552 67.5204L201.218 67.9443ZM65.301 67.4757L64.9049 67.0853C66.0707 65.9083 67.3257 64.7649 68.631 63.6883L68.9879 64.1178C67.6939 65.1553 66.4556 66.2876 65.301 67.4478V67.4757ZM107.024 66.6112L106.572 66.2876C107.553 64.9128 108.644 63.62 109.835 62.4222L110.231 62.8182C109.062 63.9843 107.989 65.2435 107.024 66.5833V66.6112ZM288.484 66.3378C287.192 65.2903 285.842 64.3164 284.44 63.4206L284.741 62.9521C286.161 63.859 287.528 64.846 288.835 65.9083L288.484 66.3378ZM228.198 64.1959L227.83 63.7776C229.099 62.6636 230.455 61.6527 231.885 60.7544L232.181 61.2285C230.775 62.1081 229.443 63.1006 228.198 64.1959ZM193.258 61.842C191.88 60.8938 190.469 59.9735 189.058 59.1089L189.353 58.6348C190.765 59.5049 192.187 60.4308 193.57 61.3847L193.258 61.842ZM72.9817 61.1002L72.6694 60.6372C74.0527 59.7001 75.4974 58.8132 76.9699 57.9989L77.2377 58.4842C75.7818 59.2874 74.3483 60.1687 72.9817 61.0946V61.1002ZM280.111 60.9161C278.644 60.1743 277.11 59.4826 275.554 58.8746L275.761 58.3559C277.328 58.975 278.879 59.6667 280.362 60.4197L280.111 60.9161ZM123.59 60.3583C122.495 59.1219 121.262 58.0158 119.914 57.0618L120.232 56.6044C121.617 57.5837 122.884 58.7199 124.008 59.9902L123.59 60.3583ZM113.974 59.5272L113.639 59.0866C114.974 58.0631 116.363 57.1117 117.8 56.2363L118.09 56.716C116.669 57.5705 115.294 58.5015 113.974 59.5049V59.5272ZM236.593 58.9694L236.375 58.4563C237.927 57.802 239.511 57.2285 241.122 56.7383L241.284 57.2682C239.7 57.7256 238.121 58.3001 236.593 58.9415V58.9694ZM270.83 57.2961C269.235 56.8331 267.606 56.4371 265.977 56.1247L266.083 55.5669C267.756 55.8849 269.374 56.2865 270.986 56.7494L270.83 57.2961ZM184.724 56.5877C183.246 55.7845 181.745 55.0203 180.261 54.3175L180.501 53.8099C181.996 54.5183 183.502 55.288 184.992 56.0968L184.724 56.5877ZM81.7111 56.253L81.488 55.7454C83.0275 55.0593 84.6061 54.4458 86.1846 53.9103L86.3631 54.4346C84.8013 54.9645 83.2395 55.5781 81.7111 56.253ZM246.125 56.0299L246.019 55.4721C247.679 55.1467 249.355 54.9066 251.039 54.7525L251.09 55.3103C249.405 55.4721 247.743 55.7119 246.125 56.0299ZM261.029 55.355C259.356 55.1932 257.683 55.1039 256.043 55.0984V54.5406C257.716 54.5406 259.39 54.6354 261.063 54.8027L261.029 55.355ZM115.597 54.5908C114.081 53.9064 112.512 53.3468 110.906 52.9174L111.045 52.3596C112.682 52.7859 114.281 53.3456 115.826 54.033L115.597 54.5908ZM122.469 54.2952L122.218 53.7931C123.69 53.068 125.241 52.3819 126.831 51.7461L127.037 52.2648C125.486 52.8951 123.93 53.5979 122.474 54.2952H122.469ZM91.1657 53.0401L91.0318 52.4823C92.7052 52.0919 94.3785 51.7795 95.9961 51.562L96.0686 52.1198C94.451 52.3596 92.8 52.6664 91.1657 53.0401ZM175.688 52.3038C174.126 51.6735 172.547 51.0934 170.991 50.5803L171.169 50.0225C172.737 50.5412 174.327 51.1381 175.894 51.7572L175.688 52.3038ZM106.02 52.0305C104.368 51.8409 102.706 51.7552 101.044 51.7739V51.2162C102.731 51.1966 104.417 51.2842 106.092 51.4783L106.02 52.0305ZM131.756 50.5747L131.589 50.0169C133.173 49.5093 134.802 49.0463 136.436 48.6336L136.57 49.1914C134.969 49.6041 133.329 50.0671 131.75 50.5747H131.756ZM166.205 49.1746C164.576 48.7563 162.931 48.4049 161.324 48.1204L161.425 47.5626C163.042 47.8527 164.699 48.2097 166.345 48.628L166.205 49.1746ZM141.467 48.1372L141.367 47.5794C142.17 47.4343 142.968 47.3005 143.749 47.1889C144.529 47.0774 145.489 46.9546 146.365 46.871L146.415 47.4288C145.55 47.5069 144.68 47.6128 143.832 47.7355C142.984 47.8583 142.254 48.02 141.456 48.1372H141.467ZM156.371 47.4622C154.698 47.3116 153.025 47.228 151.39 47.228V46.6702C153.064 46.6702 154.737 46.7538 156.41 46.91L156.371 47.4622Z" fill="#313848"/>
<path d="M157.865 12.6507L157.497 10.1295C157.017 6.86639 156.521 3.48619 156.192 0.0892463L157.084 0C157.413 3.39694 157.91 6.74368 158.395 10.0012L158.763 12.5224L157.865 12.6507ZM144.088 18.5688L141.968 17.1855C139.179 15.3894 136.329 13.5264 133.551 11.5239L134.075 10.7988C136.864 12.7845 139.692 14.642 142.442 16.4325L144.567 17.8214L144.088 18.5688ZM128.798 34.8953L128.637 34.014C131.983 33.3893 135.269 32.6084 138.465 31.8498L140.964 31.2864L141.17 32.1622L138.677 32.72C135.47 33.4841 132.179 34.2706 128.798 34.8953ZM177.466 18.5688L176.975 17.8214L179.1 16.4325C181.861 14.642 184.717 12.7845 187.467 10.7988L187.991 11.5239C185.225 13.5264 182.38 15.3894 179.591 17.1855L177.466 18.5688ZM192.755 34.8953C189.408 34.2706 186.061 33.4841 182.882 32.72L180.383 32.1622L180.589 31.2864L183.088 31.8442C186.284 32.6028 189.586 33.3837 192.922 34.0084L192.755 34.8953Z" fill="#FDAC19"/>
<path fill-rule="evenodd" clip-rule="evenodd" d="M157.117 67.2025C157.117 67.3977 158.233 69.8743 158.233 70.0696H163.638C163.638 69.8743 164.452 67.3977 164.43 67.2025H157.117Z" fill="#015288"/>
<path fill-rule="evenodd" clip-rule="evenodd" d="M153.88 50.2513C154.438 51.6178 154.934 58.3838 155.42 59.7727H166.921C167.479 58.3783 168.009 51.6067 168.595 50.2401C169.9 48.3492 175.93 41.3155 177.971 34.767C180.721 26.5229 173.018 14.8874 161.076 14.8706C149.178 14.7647 140.778 25.5969 143.522 33.8634C145.591 40.7298 151.331 47.1778 153.88 50.2513Z" fill="#FDAC19"/>
<path d="M163.268 58.8914C162.393 54.0999 162.817 44.0207 164.562 36.7638C164.327 36.7921 164.089 36.7751 163.86 36.7136C162.744 36.4236 161.969 35.1797 161.4 33.7685C160.58 35.6204 159.576 36.6411 158.404 36.8085C157.938 36.868 157.465 36.8026 157.032 36.6188C158.064 43.5577 159.18 53.6258 158.895 58.8467L158.187 58.8077C158.455 53.8601 157.356 43.4629 156.246 36.1893C154.996 35.1993 154 33.9259 153.34 32.4744C152.592 30.9517 151.962 28.9325 152.654 28.2631L152.698 28.2241C152.927 28.0321 153.201 27.9028 153.494 27.849C153.788 27.7952 154.09 27.8187 154.372 27.9173C155.599 28.4249 156.011 30.6002 156.229 31.766V31.8162C156.43 32.8816 156.659 34.2315 156.898 35.771C157.315 36.035 157.808 36.1509 158.298 36.1001C159.102 35.9885 160.117 35.2411 161.037 32.7533C160.789 31.9656 160.584 31.1649 160.424 30.3548C159.966 28.0512 160.591 26.2606 161.45 25.6805C161.591 25.5658 161.765 25.4978 161.947 25.4858C162.129 25.4738 162.31 25.5185 162.465 25.6136C163.023 25.9594 163.162 26.8965 162.917 28.2575C162.669 29.7842 162.296 31.2879 161.801 32.7533C162.426 34.6108 163.218 35.7821 164.033 35.9997C164.264 36.069 164.51 36.069 164.741 35.9997C165.181 34.1619 165.859 32.3897 166.76 30.7285L166.894 30.4998C167.34 29.7301 167.759 29.005 168.344 29.0608C168.841 29.111 169.047 29.7134 169.12 29.9086C169.677 31.582 167.446 34.5884 166.821 35.308C166.423 35.7946 165.934 36.1999 165.382 36.5017C163.609 43.6246 163.101 53.9438 163.982 58.7519L163.268 58.8914ZM168.255 29.797C167.953 30.1151 167.699 30.4759 167.502 30.868L167.368 31.1023C166.614 32.4825 166.035 33.9515 165.645 35.4753C165.871 35.2844 166.082 35.0755 166.275 34.8506C167.245 33.735 168.796 31.2138 168.433 30.154C168.399 30.0241 168.338 29.9026 168.255 29.797ZM153.133 28.7874C152.955 29.0329 153.078 30.3158 153.981 32.1342C154.506 33.2436 155.217 34.2548 156.084 35.1239C155.9 33.9414 155.71 32.8593 155.526 31.9278V31.8999C155.359 31.013 154.968 28.938 154.093 28.5811C153.928 28.5316 153.754 28.5245 153.586 28.5606C153.419 28.5967 153.263 28.6747 153.133 28.7874ZM162.03 26.2216C161.966 26.2286 161.905 26.2516 161.852 26.2885C161.294 26.6678 160.708 28.1404 161.132 30.2377C161.227 30.7062 161.327 31.158 161.439 31.5764C161.763 30.4502 162.023 29.3068 162.22 28.1516C162.454 26.8575 162.22 26.3332 162.086 26.2383C162.069 26.227 162.05 26.2212 162.03 26.2216Z" fill="#015288"/>
<path fill-rule="evenodd" clip-rule="evenodd" d="M153.457 58.2389L154.846 59.7561C153.541 59.6334 153.474 61.7139 155.119 61.8143C153.446 61.7474 153.373 63.8893 155.008 63.9116C153.373 63.828 153.306 66.2376 154.846 66.3771L153.82 67.4926C155.934 68.4855 167.636 68.4241 167.881 67.3922L166.95 66.2767C168.59 66.1316 168.155 63.9562 166.788 64.0455C167.084 64.0455 167.368 63.928 167.577 63.7188C167.786 63.5095 167.904 63.2258 167.904 62.9299C167.904 62.634 167.786 62.3503 167.577 62.1411C167.368 61.9319 167.084 61.8143 166.788 61.8143C167.044 61.8112 167.289 61.7139 167.477 61.5411C167.665 61.3683 167.783 61.1322 167.808 60.8779C167.833 60.6237 167.763 60.3692 167.612 60.1632C167.461 59.9573 167.239 59.8143 166.989 59.7617L168.105 58.2222L153.457 58.2389Z" fill="#0086CA"/>
<path d="M90.1218 88.4041H16.9844V101.049H90.1218V88.4041Z" fill="#EA7052"/>
<path d="M75.0669 99.4428C66.2259 99.2587 19.5444 99.1193 19.0703 99.1193H18.7747L17.832 90.4122H18.1723C26.3049 89.8544 36.3897 89.5867 48.1479 89.5867C62.7899 89.5867 74.9218 90.0273 75.0445 90.0329H75.2956L75.3513 90.2727C75.5354 91.0035 77.0916 97.4627 75.8645 99.0412C75.7704 99.1639 75.6498 99.2638 75.5116 99.3333C75.3735 99.4029 75.2215 99.4403 75.0669 99.4428ZM19.3436 98.4555C23.3542 98.4555 66.5829 98.6005 75.0613 98.7846C75.1197 98.7852 75.1772 98.7712 75.2289 98.7439C75.2805 98.7167 75.3245 98.677 75.3569 98.6284C76.1155 97.6635 75.4294 93.335 74.7991 90.6632C72.9975 90.6018 61.6464 90.2281 48.1702 90.2281C36.5905 90.2281 26.634 90.4959 18.6074 91.0258L19.3436 98.4555ZM83.1771 92.8386C82.8576 92.4307 82.3925 92.1625 81.8794 92.0904C81.3663 92.0183 80.8453 92.1479 80.4257 92.4519C80.0062 92.7559 79.7208 93.2107 79.6296 93.7207C79.5383 94.2307 79.6483 94.7562 79.9364 95.1869C80.2553 95.5902 80.7037 95.871 81.2058 95.9818C81.7079 96.0926 82.2328 96.0265 82.6918 95.7949L84.566 98.4221L85.0234 98.093L82.9428 95.6052C83.2766 95.2318 83.48 94.7601 83.5222 94.261C83.5645 93.762 83.4434 93.2628 83.1771 92.8386ZM82.4018 95.1757C82.1717 95.3441 81.8968 95.4403 81.612 95.4522C81.3272 95.4641 81.0452 95.3911 80.8019 95.2425C80.5586 95.0939 80.3649 94.8764 80.2454 94.6175C80.1259 94.3587 80.086 94.0702 80.1307 93.7887C80.1754 93.5071 80.3027 93.2452 80.4965 93.0361C80.6903 92.827 80.9418 92.6802 81.2192 92.6142C81.4966 92.5483 81.7872 92.5662 82.0544 92.6658C82.3215 92.7653 82.5531 92.9419 82.7197 93.1733C82.9403 93.4819 83.0305 93.865 82.9711 94.2396C82.9116 94.6143 82.7071 94.9505 82.4018 95.1757Z" fill="white"/>
</svg>
