<svg width="68" height="27" viewBox="0 0 68 27" fill="none" xmlns="http://www.w3.org/2000/svg">
<g clip-path="url(#clip0_48_10620)">
<rect x="1.64624" y="1.64636" width="24.0777" height="24.0777" rx="12.0389" fill="#F3AF02"/>
<path d="M21.0799 2.93088C19.7891 1.89045 14.8374 0.128818 7.9612 2.35829C1.09286 4.57994 1.25714 11.5359 1.22584 12.9283C1.19455 14.3207 1.89078 20.8292 5.24672 23.09C9.13461 25.7106 13.6483 25.2178 17.3719 24.2556C21.0955 23.2934 24.1151 19.5072 24.5766 18.4433C25.0382 17.3794 26.0082 15.2438 26.2038 13.7028C26.3993 12.1617 26.501 11.0665 25.3746 9.00912C24.2481 6.95175 22.8165 4.32332 21.0877 2.93088H21.0799Z" fill="#EA4B0A"/>
<path d="M5.05864 23.2465C5.05864 23.2465 5.04299 23.2465 5.03517 23.2465C4.98824 23.2308 4.96477 23.1839 4.98041 23.137C4.98041 23.1135 5.66881 21.1265 5.86438 19.8592C6.06777 18.545 6.99085 18.1148 7.02996 18.0991C7.06908 18.0835 7.12384 18.0991 7.13948 18.1382C7.15513 18.1774 7.13948 18.2321 7.10037 18.2478C7.09255 18.2478 6.22422 18.6545 6.03648 19.8827C5.84091 21.1656 5.15251 23.1683 5.14469 23.1917C5.12904 23.223 5.09775 23.2465 5.06646 23.2465H5.05864Z" fill="#660409"/>
<path d="M1.30384 15.9789C1.30384 15.9789 1.24908 15.9632 1.23344 15.9398C1.20997 15.9007 1.22562 15.8459 1.26473 15.8224C1.26473 15.8224 1.65587 15.5956 2.61024 14.9228C3.60372 14.2266 5.66892 13.7572 5.81755 13.7338C5.85666 13.7338 5.9036 13.7572 5.91142 13.8042C5.91142 13.8511 5.88795 13.8902 5.84102 13.898C5.70021 13.9137 3.68195 14.3752 2.71193 15.0558C1.74974 15.7286 1.36642 15.9554 1.35078 15.9632C1.33513 15.9632 1.31949 15.9711 1.31167 15.9711L1.30384 15.9789Z" fill="#660409"/>
<path d="M1.13183 11.8956C1.13183 11.8956 1.09272 11.8956 1.07707 11.8799C1.03796 11.8486 1.03796 11.7939 1.06143 11.7626C1.07707 11.7469 2.46169 10.0572 3.18138 9.29841C3.90107 8.53961 4.80068 9.14196 6.16966 10.0494L6.51386 10.2763C8.09404 11.3167 9.68988 11.1993 9.70552 11.1993C9.75246 11.1993 9.79157 11.2228 9.80722 11.2619C9.81504 11.3089 9.79157 11.348 9.74464 11.3636C9.58036 11.4027 7.93759 11.4184 6.41998 10.4171L6.07579 10.1902C4.7381 9.29841 3.92454 8.75865 3.30654 9.41576C2.59468 10.1667 1.21006 11.8564 1.19441 11.8721C1.17877 11.8956 1.1553 11.9034 1.13183 11.9034V11.8956Z" fill="#660409"/>
<path d="M10.8318 11.5513C10.8318 11.5513 10.824 11.5513 10.8162 11.5513C10.5893 11.4887 9.47851 10.0885 8.78229 9.05586C8.03131 7.93721 7.53848 7.38962 4.51109 7.11583C4.46415 7.11583 4.43286 7.06889 4.43286 7.02195C4.43286 6.97502 4.4798 6.94373 4.52673 6.94373C7.61671 7.21752 8.15647 7.81987 8.9231 8.95416C9.68972 10.0963 10.7067 11.3166 10.8631 11.3792C10.9101 11.3948 10.9335 11.4418 10.9179 11.4809C10.9022 11.52 10.8631 11.5435 10.824 11.5435L10.8318 11.5513Z" fill="#660409"/>
<path d="M9.33012 7.06131C9.33012 7.06131 9.29101 7.04567 9.27536 7.03002C9.16585 6.88921 6.92073 5.11346 6.00547 4.89442C5.95853 4.8866 5.93507 4.83966 5.94289 4.79273C5.95071 4.74579 5.99765 4.7145 6.04458 4.73014C6.99113 4.957 9.26754 6.74058 9.40835 6.92833C9.43964 6.96744 9.43182 7.01438 9.3927 7.04567C9.37706 7.06131 9.35359 7.06914 9.33012 7.06131Z" fill="#660409"/>
<path d="M12.8582 9.40057C12.8582 9.40057 12.8034 9.38492 12.7878 9.36145C12.7722 9.34581 11.6144 7.43707 12.0916 6.06027C12.5453 4.75388 13.7813 2.43053 13.7891 2.40706C13.8126 2.36795 13.8595 2.3523 13.9064 2.37577C13.9456 2.39924 13.9612 2.44618 13.9377 2.49311C13.9221 2.51658 12.7017 4.8321 12.248 6.12285C11.8021 7.4136 12.913 9.25194 12.9286 9.27541C12.9521 9.31452 12.9443 9.36928 12.9051 9.39275C12.8895 9.40057 12.8739 9.40839 12.8582 9.40839V9.40057Z" fill="#660409"/>
<path d="M14.7745 6.42046C14.7745 6.42046 14.7667 6.42046 14.7589 6.42046C14.7119 6.41264 14.6806 6.3657 14.6885 6.31877C14.7119 6.18578 15.2986 3.13492 17.1683 2.11015C17.2074 2.08668 17.2621 2.10232 17.2856 2.14144C17.3091 2.18055 17.2934 2.23531 17.2543 2.25878C15.4629 3.24444 14.8684 6.31877 14.8606 6.35006C14.8527 6.38917 14.8214 6.42046 14.7745 6.42046Z" fill="#660409"/>
<path d="M18.2714 8.76831C18.2714 8.76831 18.248 8.76831 18.2323 8.76049C18.1932 8.73702 18.1697 8.69009 18.1932 8.65097C18.2167 8.60404 18.7564 7.51668 20.2193 6.91433C21.6821 6.3198 24.4514 7.20377 24.5687 7.24288C24.6156 7.25853 24.6391 7.30547 24.6235 7.3524C24.6078 7.39934 24.5609 7.42281 24.514 7.40716C24.4827 7.39934 21.6821 6.49973 20.2819 7.07078C18.8816 7.64184 18.3497 8.71355 18.3418 8.72138C18.3262 8.75267 18.2949 8.76831 18.2636 8.76831H18.2714Z" fill="#660409"/>
<path d="M21.2675 10.8078C21.2675 10.8078 21.244 10.8078 21.2362 10.8078C18.6625 9.81429 18.201 10.2132 18.201 10.2211C18.1697 10.2602 18.1227 10.2602 18.0836 10.2289C18.0445 10.1976 18.0445 10.1428 18.0758 10.1116C18.1227 10.0568 18.5921 9.6109 21.2988 10.6513C21.3457 10.667 21.3613 10.7139 21.3457 10.7608C21.33 10.7921 21.2988 10.8156 21.2675 10.8156V10.8078Z" fill="#660409"/>
<path d="M25.6952 15.3619C25.6952 15.3619 25.6639 15.3619 25.6483 15.3462C25.6248 15.3306 23.7083 14.079 22.707 13.9694C21.69 13.8521 20.7904 13.7973 20.7826 13.7973C20.7356 13.7973 20.7043 13.7504 20.7043 13.7113C20.7043 13.6643 20.7513 13.6331 20.7904 13.6331C20.7982 13.6331 21.6978 13.6878 22.7226 13.8052C23.763 13.9225 25.6561 15.1585 25.7344 15.2132C25.7735 15.2367 25.7813 15.2915 25.7578 15.3306C25.7422 15.3541 25.7187 15.3697 25.6874 15.3697L25.6952 15.3619Z" fill="#660409"/>
<path d="M22.0732 21.7385C22.0732 21.7385 22.0106 21.7229 21.995 21.6916C21.2518 20.0801 19.7029 18.0619 19.6873 18.0384C19.656 17.9993 19.6638 17.9523 19.7029 17.921C19.742 17.8898 19.789 17.8976 19.8203 17.9367C19.8359 17.9602 21.4005 19.9941 22.1514 21.6212C22.1749 21.6603 22.1514 21.7151 22.1123 21.7307C22.0967 21.7307 22.0888 21.7385 22.0732 21.7385Z" fill="#660409"/>
<path d="M12.8502 25.2797C12.8033 25.2797 12.772 25.2484 12.7642 25.2015C12.6859 24.0828 12.725 23.1128 12.7642 22.9094C12.772 22.8625 12.8111 22.839 12.8659 22.8468C12.9128 22.8546 12.9441 22.9016 12.9284 22.9485C12.8893 23.1363 12.858 24.1063 12.9284 25.1936C12.9284 25.2406 12.8971 25.2797 12.8502 25.2875V25.2797Z" fill="#660409"/>
<path d="M10.6754 25.0375C10.6285 25.0375 10.5894 24.9984 10.5972 24.9515L10.6598 23.1366C10.7224 21.3296 11.2856 20.2422 11.3091 20.2031C11.3325 20.164 11.3795 20.1483 11.4264 20.1718C11.4655 20.1953 11.4812 20.2422 11.4655 20.2891C11.4655 20.297 10.9023 21.3843 10.8319 23.1522L10.7693 24.9671C10.7693 25.0141 10.7302 25.0453 10.6832 25.0453L10.6754 25.0375Z" fill="#660409"/>
<path d="M11.3401 18.5673C11.3401 18.5673 12.0107 19.8339 12.9122 19.7222C13.8138 19.6104 16.3396 19.4241 16.8016 18.5077C17.2635 17.5912 17.2635 16.7716 17.2635 16.7716C17.2635 16.7716 19.7446 15.6614 19.4317 14.6928C19.1188 13.7242 17.107 8.94824 17.107 8.94824C17.107 8.94824 15.0655 10.5129 11.7499 11.3996C8.43426 12.2862 6.94409 12.2117 6.94409 12.2117C6.94409 12.2117 7.82329 18.0457 8.62798 18.5002C9.43267 18.9547 11.3401 18.5822 11.3401 18.5822V18.5673Z" fill="#F3AF02"/>
<path d="M9.11975 13.4939C8.73231 13.2928 9.84249 11.5642 10.2001 11.7802C10.5578 11.9963 10.826 12.2795 10.7887 12.57C10.7515 12.8606 9.38053 13.6281 9.11975 13.4939Z" fill="#EA4B0A"/>
<path d="M16.3916 11.2286C16.6897 10.9007 15.0281 9.67881 14.7748 10.0141C14.5215 10.3494 14.3724 10.6996 14.4991 10.9604C14.6258 11.2211 16.1905 11.4447 16.3842 11.2286H16.3916Z" fill="#EA4B0A"/>
<path d="M11.6531 13.903C11.4743 13.3293 10.6472 12.9493 9.70096 13.6273C8.38217 14.581 9.20176 16.7641 10.4609 16.4214C11.7201 16.0786 12.0182 15.0951 11.6456 13.9104L11.6531 13.903Z" fill="white"/>
<mask id="mask0_48_10620" style="mask-type:alpha" maskUnits="userSpaceOnUse" x="9" y="13" width="3" height="4">
<path d="M11.6531 13.903C11.4743 13.3293 10.6472 12.9493 9.70096 13.6273C8.38217 14.581 9.20176 16.7641 10.4609 16.4214C11.7201 16.0786 12.0182 15.0951 11.6456 13.9104L11.6531 13.903Z" fill="white"/>
</mask>
<g mask="url(#mask0_48_10620)">
<path d="M10.4457 15.8406C11.0548 15.8406 11.5485 15.3469 11.5485 14.7379C11.5485 14.1288 11.0548 13.6351 10.4457 13.6351C9.83672 13.6351 9.34302 14.1288 9.34302 14.7379C9.34302 15.3469 9.83672 15.8406 10.4457 15.8406Z" fill="#660409"/>
<path d="M9.51442 14.8722C9.74485 14.8722 9.93166 14.6854 9.93166 14.455C9.93166 14.2245 9.74485 14.0377 9.51442 14.0377C9.28398 14.0377 9.09717 14.2245 9.09717 14.455C9.09717 14.6854 9.28398 14.8722 9.51442 14.8722Z" fill="white"/>
</g>
<path d="M16.6452 12.9811C16.4664 12.4074 15.7213 12.0274 14.7825 12.7054C13.4637 13.6591 14.4248 15.8124 15.6542 15.3654C16.8836 14.9183 16.9581 13.9721 16.6526 12.9886L16.6452 12.9811Z" fill="white"/>
<mask id="mask1_48_10620" style="mask-type:alpha" maskUnits="userSpaceOnUse" x="14" y="12" width="3" height="4">
<path d="M16.6452 12.9811C16.4664 12.4074 15.7213 12.0274 14.7825 12.7054C13.4637 13.6591 14.4248 15.8124 15.6542 15.3654C16.8836 14.9183 16.9581 13.9721 16.6526 12.9886L16.6452 12.9811Z" fill="white"/>
</mask>
<g mask="url(#mask1_48_10620)">
<path d="M15.61 14.8447C16.2191 14.8447 16.7128 14.351 16.7128 13.742C16.7128 13.133 16.2191 12.6393 15.61 12.6393C15.001 12.6393 14.5073 13.133 14.5073 13.742C14.5073 14.351 15.001 14.8447 15.61 14.8447Z" fill="#660409"/>
<path d="M14.6787 13.8781C14.9092 13.8781 15.096 13.6913 15.096 13.4608C15.096 13.2304 14.9092 13.0436 14.6787 13.0436C14.4483 13.0436 14.2615 13.2304 14.2615 13.4608C14.2615 13.6913 14.4483 13.8781 14.6787 13.8781Z" fill="white"/>
</g>
<path d="M12.5026 16.7505C12.294 16.2737 13.0167 16.1768 13.7022 16.0054C14.3877 15.8341 14.7602 15.849 14.7602 16.3109C14.7602 16.7729 14.6037 17.0709 13.8438 17.2572C13.0838 17.4434 12.7038 17.1976 12.5101 16.7431L12.5026 16.7505Z" fill="#660409"/>
<path d="M13.2551 19.156C12.5398 19.156 11.6531 17.785 11.5414 17.6137C11.5116 17.569 11.5265 17.5168 11.5712 17.487C11.6159 17.4572 11.6755 17.4721 11.6979 17.5168C11.9959 17.9862 12.8602 19.156 13.3743 18.9474C13.8809 18.7388 13.8064 17.6733 13.7394 17.2784C13.7319 17.2337 13.7617 17.189 13.8064 17.1741C13.8511 17.1592 13.9033 17.189 13.9182 17.2337C13.9182 17.2486 14.5217 18.8431 15.4084 18.5674C16.3174 18.2843 16.2801 16.4812 16.2801 16.4588C16.2801 16.4066 16.3174 16.3619 16.3695 16.3619C16.4217 16.3619 16.4589 16.3992 16.4589 16.4513C16.4589 16.5333 16.5036 18.4184 15.4605 18.7388C14.7527 18.9548 14.246 18.2843 13.9704 17.785C13.9853 18.2694 13.9108 18.925 13.4413 19.1187C13.3817 19.1486 13.3147 19.156 13.2476 19.156H13.2551Z" fill="#660409"/>
<path d="M15.9592 7.46644C15.8475 7.28017 16.4137 5.66334 17.4866 6.45313C18.5596 7.24292 18.2615 8.30839 18.2615 8.30839L15.9592 7.46644Z" fill="#F3AF02"/>
<path d="M17.7472 8.01904C18.0303 8.04884 17.6876 7.19945 17.0021 7.14729C16.4656 7.11004 16.2421 7.54218 16.5327 7.63905C16.9574 7.77316 17.5162 7.98923 17.7397 8.01904H17.7472Z" fill="#F58E05"/>
<path d="M5.81891 10.1829C5.81891 10.1829 4.44796 9.23662 3.85934 10.1009C3.27072 10.9652 4.26914 12.3362 4.26914 12.3362L5.81891 10.1829Z" fill="#F3AF02"/>
<path d="M4.53722 11.568C4.31369 11.7394 4.16468 10.8304 4.71604 10.4355C5.15564 10.1226 5.57288 10.3759 5.37171 10.6143C5.07368 10.9496 4.71604 11.4265 4.53722 11.568Z" fill="#F58E05"/>
<path d="M15.1994 17.336C15.1621 17.336 15.1249 17.3137 15.11 17.2839C15.0727 17.2168 15.0951 17.1498 15.1323 17.12C15.1845 17.0827 15.2515 17.0827 15.3037 17.1274C15.3037 17.1274 15.3484 17.1945 15.3335 17.2392C15.3186 17.2913 15.2664 17.3286 15.2068 17.336H15.1919H15.1994ZM15.2068 17.1647C15.2068 17.1647 15.1845 17.1647 15.177 17.1796C15.1621 17.1945 15.1547 17.2168 15.177 17.2466C15.177 17.2541 15.1919 17.2615 15.2068 17.2615C15.2068 17.2615 15.259 17.2392 15.2664 17.2168C15.2664 17.2094 15.2664 17.1945 15.2515 17.187C15.2515 17.187 15.2217 17.1647 15.2068 17.1647Z" fill="#660409"/>
<path d="M15.6243 16.7769H15.6094C15.5572 16.7769 15.52 16.7322 15.5051 16.6725C15.4827 16.5906 15.5051 16.5012 15.5647 16.4639C15.6094 16.4341 15.6616 16.4416 15.7137 16.4863C15.7733 16.5384 15.8106 16.6278 15.7659 16.7098C15.7361 16.7545 15.6839 16.7843 15.6317 16.7843L15.6243 16.7769ZM15.6243 16.5235H15.6094C15.5796 16.5384 15.5647 16.5906 15.5796 16.6502C15.587 16.68 15.6019 16.6949 15.6243 16.7024C15.6541 16.7024 15.6914 16.6875 15.6988 16.6651C15.7212 16.6278 15.6988 16.5682 15.6616 16.5384C15.6616 16.5384 15.6317 16.5235 15.6243 16.5235Z" fill="#660409"/>
<path d="M15.6764 17.5151C15.6764 17.5151 15.6615 17.5151 15.6541 17.5151C15.6317 17.5151 15.6019 17.4853 15.5945 17.4182C15.5945 17.2767 15.669 17.1575 15.7435 17.1351C15.7808 17.1202 15.8106 17.1351 15.8329 17.1649C15.8925 17.2618 15.8553 17.3661 15.8031 17.4332C15.7659 17.4853 15.7137 17.5151 15.669 17.5151H15.6764ZM15.7733 17.2022C15.7733 17.2022 15.7659 17.2022 15.7435 17.2171C15.7062 17.2469 15.669 17.3214 15.669 17.4108C15.669 17.4257 15.669 17.4332 15.669 17.4332C15.669 17.4332 15.7062 17.4183 15.736 17.3884C15.7733 17.3437 15.8031 17.2692 15.7659 17.2022H15.7733Z" fill="#660409"/>
<path d="M12.8373 18.2832C12.8001 18.2832 12.7628 18.2608 12.7479 18.231C12.7107 18.164 12.733 18.0969 12.7703 18.0671C12.8224 18.0299 12.8895 18.0299 12.9416 18.0746C12.9416 18.0746 12.9863 18.1416 12.9714 18.1863C12.9565 18.2385 12.9044 18.2757 12.8448 18.2832C12.8448 18.2832 12.8373 18.2832 12.8299 18.2832H12.8373ZM12.8448 18.1118C12.8448 18.1118 12.8224 18.1118 12.815 18.1193C12.8001 18.1342 12.7926 18.1565 12.815 18.1863C12.815 18.1938 12.8299 18.2012 12.8448 18.2012C12.8671 18.2012 12.8969 18.1789 12.9044 18.1565C12.9044 18.1491 12.9044 18.1342 12.8895 18.1267C12.8895 18.1267 12.8597 18.1118 12.8448 18.1118Z" fill="#660409"/>
<path d="M12.5098 17.894H12.4949C12.4427 17.894 12.4055 17.8493 12.3906 17.7897C12.3682 17.7078 12.3906 17.6184 12.4502 17.5811C12.4949 17.5513 12.547 17.5588 12.5992 17.6035C12.6588 17.6556 12.6961 17.745 12.6514 17.827C12.6216 17.8717 12.5694 17.9015 12.5172 17.9015L12.5098 17.894ZM12.5098 17.6407H12.4949C12.4725 17.6556 12.4502 17.7078 12.4651 17.7674C12.4725 17.7972 12.4874 17.8121 12.5098 17.8195C12.5396 17.8195 12.5769 17.8046 12.5843 17.7823C12.6067 17.745 12.5843 17.6854 12.5471 17.6556C12.5471 17.6556 12.5172 17.6407 12.5023 17.6407H12.5098Z" fill="#660409"/>
</g>
<rect x="1.0443" y="1.04442" width="25.2816" height="25.2816" rx="12.6408" stroke="#FCFBF9" stroke-width="1.20389"/>
<g clip-path="url(#clip1_48_10620)">
<rect x="21.7112" y="1.64636" width="24.0777" height="24.0777" rx="12.0389" fill="#5A6A00"/>
<path d="M29.0161 34.0496C29.7448 34.1068 38.7653 29.8187 40.3324 28.7741C41.8878 27.7371 37.6341 28.555 38.279 27.4862C38.7205 26.7539 31.9759 23.4082 29.9428 24.7542C27.9002 26.1163 27.3233 33.9155 29.0161 34.0496Z" fill="#8FA417"/>
<path d="M22.1783 22.9097C22.4417 22.2338 26.7457 23.3792 28.3415 22.3725C29.9255 21.3735 29.8791 17.4944 31.128 17.3316C31.9822 17.2235 32.1514 23.8176 30.0958 25.1149C28.0191 26.436 21.7484 24.008 22.1783 22.9097Z" fill="#8FA417"/>
<path opacity="0.6" d="M19.4609 17.7987C19.7243 17.1227 23.7106 19.0496 25.3064 18.0429C26.8905 17.0439 26.5488 13.4346 27.7978 13.2718C28.652 13.1636 29.1163 19.488 27.0607 20.7853C24.9755 22.1087 19.031 18.897 19.4609 17.7987Z" fill="#8FA417"/>
<path opacity="0.3" d="M18.4347 14.1876C18.731 13.667 21.2584 15.2702 22.8542 14.2635C24.4383 13.2645 22.9491 9.63152 24.1949 9.47411C25.0491 9.36593 26.4819 15.1372 24.4232 16.4399C22.3465 17.761 18.0442 14.87 18.4347 14.1876Z" fill="#8FA417"/>
<path opacity="0.2" d="M19.0123 8.06472C18.629 8.45181 19.7664 11.4879 20.7678 12.1157C21.3539 12.4844 21.8896 12.2741 21.8036 11.5382C21.695 10.6405 19.64 7.43486 19.0123 8.06472Z" fill="#8FA417"/>
<path d="M45.4475 22.2001C45.2116 21.4372 40.6627 23.2464 38.9828 22.0149C37.3152 20.7928 37.9808 16.831 36.6104 16.5596C35.6764 16.3745 34.6644 23.315 36.831 24.9098C39.0222 26.5235 45.8333 23.4492 45.4475 22.2001Z" fill="#8FA417"/>
<path opacity="0.4" d="M47.0988 18.0979C46.8152 17.5011 43.5235 19.475 41.8436 18.2435C40.176 17.0214 42.4111 13.1529 41.0407 12.8815C40.1067 12.6964 38.1415 18.5283 40.3082 20.123C42.4925 21.7354 47.471 18.8878 47.0988 18.0979Z" fill="#8FA417"/>
<path opacity="0.3" d="M46.9458 11.9107C47.3103 12.3895 45.6044 15.5461 44.4119 16.0906C43.7153 16.409 43.1608 16.099 43.3674 15.3033C43.6168 14.3401 46.3477 11.128 46.9458 11.9107Z" fill="#8FA417"/>
<path d="M28.477 11.958C28.2982 11.791 24.1782 2.03183 30.5632 2.20636C37.8735 2.39979 33.8217 12.9861 33.8217 12.9861L30.9705 14.0198L28.477 11.958Z" fill="#7B7FDA"/>
<path d="M33.09 12.6719C36.545 6.23857 31.8182 0.581917 31.8796 0.609262C32.0536 0.684694 40.8417 6.14433 33.7036 14.0129L33.09 12.6719Z" fill="#9FA3F3"/>
<path d="M31.9143 13.7317C31.6859 14.0682 26.1715 6.99518 30.2921 0.856038C30.2921 0.856038 36.357 7.25128 31.9143 13.7317Z" fill="#9FA3F3"/>
<path d="M30.0105 12.6202C25.1002 6.86167 28.1184 1.39134 28.073 1.44428C27.9531 1.58702 21.2017 8.48409 30.3278 14.5698L30.0105 12.6202Z" fill="#9FA3F3"/>
<path d="M26.7889 11.2192C26.875 11.2768 29.0664 16.4707 32.6229 15.0281C34.8708 14.1146 36.0123 10.3888 36.0123 10.3888L34.6418 11.5207L34.3117 10.1701C34.3117 10.1701 33.1851 11.3547 32.8728 11.9794C32.757 11.4127 31.7411 10.4291 31.7411 10.4291C31.7411 10.4291 31.1312 11.2648 31.3987 12.4794C31.1423 12.1707 30.1147 10.8471 30.1147 10.8471L30.2638 12.8592L28.7466 11.4056C28.7466 11.4056 28.7833 12.3861 29.216 13.3409C28.7413 13.022 26.7889 11.2192 26.7889 11.2192Z" fill="#2C836B"/>
<g clip-path="url(#clip2_48_10620)">
<path d="M27.995 18.0519C27.995 18.0519 26.338 13.8201 25.6548 13.7304C24.9716 13.6406 22.1806 15.4513 22.8313 16.707C23.4819 17.9626 27.9959 18.0449 27.9959 18.0449L27.995 18.0519Z" fill="#5E5814"/>
<path d="M26.9909 18.5155C26.9476 18.4672 24.9814 15.5636 25.8808 12.3343C26.7801 9.10493 28.9149 7.75414 29.6797 7.22339C30.4444 6.69263 35.7837 7.99674 37.4 13.5636C39.0163 19.1304 39.6616 19.2932 39.6616 19.2932C39.6616 19.2932 28.9517 20.5957 26.9988 18.5094L26.9909 18.5155Z" fill="#A99E34"/>
<path d="M32.0222 14.9783C33.1794 15.2934 34.9154 14.8193 35.1609 13.2204C35.4064 11.6214 33.069 10.896 31.8049 11.9356C30.5407 12.9752 30.7632 14.6286 32.0222 14.9783Z" fill="white"/>
<path d="M33.0194 14.3549C33.8203 14.4601 34.5548 13.8961 34.66 13.0952C34.7652 12.2943 34.2012 11.5598 33.4003 11.4546C32.5994 11.3494 31.8649 11.9134 31.7597 12.7143C31.6545 13.5152 32.2185 14.2497 33.0194 14.3549Z" fill="#660409"/>
<path d="M31.9393 12.8601C32.0971 12.8808 32.2419 12.7697 32.2627 12.6118C32.2834 12.4539 32.1722 12.3091 32.0144 12.2884C31.8565 12.2677 31.7117 12.3788 31.691 12.5367C31.6702 12.6946 31.7814 12.8394 31.9393 12.8601Z" fill="white"/>
<path d="M26.9365 14.5009C27.9613 14.7986 29.1907 14.2935 29.4353 12.7015C29.6798 11.1095 27.6084 10.4119 26.4697 11.468C25.331 12.5241 25.8239 14.1704 26.9365 14.5009Z" fill="white"/>
<path d="M27.5153 13.87C28.3161 13.9752 29.0507 13.4113 29.1559 12.6104C29.2611 11.8095 28.6971 11.075 27.8962 10.9698C27.0953 10.8646 26.3608 11.4285 26.2556 12.2294C26.1504 13.0303 26.7144 13.7649 27.5153 13.87Z" fill="#660409"/>
<path d="M26.4432 12.367C26.601 12.3878 26.7458 12.2766 26.7666 12.1187C26.7873 11.9609 26.6761 11.8161 26.5183 11.7954C26.3604 11.7746 26.2156 11.8858 26.1949 12.0437C26.1741 12.2015 26.2853 12.3463 26.4432 12.367Z" fill="white"/>
<path d="M28.502 15.1588C28.502 15.1588 28.0983 14.7228 28.3108 14.3464C28.5234 13.9701 28.9962 14.7981 28.9962 14.7981C28.9962 14.7981 29.6689 14.0496 30.0372 14.4313C30.4055 14.813 29.4095 15.3772 29.4095 15.3772C29.1398 15.5404 28.7461 15.4603 28.502 15.1588Z" fill="#A99E34"/>
<path d="M28.4687 15.1972C28.4496 15.1805 28.0407 14.7297 28.2709 14.3273C28.3264 14.2282 28.4007 14.2025 28.4574 14.2028C28.6702 14.2024 28.92 14.5686 29.0142 14.7157C29.1371 14.59 29.4757 14.2798 29.7819 14.2704C29.9031 14.2651 29.9971 14.3058 30.0855 14.3883C30.16 14.469 30.1978 14.5591 30.178 14.6558C30.1304 15.0183 29.4704 15.3997 29.4398 15.417C29.417 15.4282 29.3822 15.4236 29.371 15.4008C29.3598 15.3781 29.3644 15.3432 29.3871 15.332C29.5639 15.2276 30.0308 14.913 30.0725 14.649C30.0817 14.5793 30.0611 14.5199 30.0039 14.4698C29.9485 14.4058 29.8676 14.3739 29.7821 14.3768C29.448 14.3826 29.0413 14.8327 29.0413 14.8327C29.0325 14.8458 29.0107 14.85 28.9968 14.8481C28.9828 14.8463 28.9619 14.8436 28.9577 14.8217C28.8421 14.6222 28.6007 14.2997 28.4585 14.3023C28.4376 14.2995 28.4009 14.3089 28.3639 14.375C28.1708 14.7113 28.5424 15.1218 28.5494 15.1227C28.5675 15.1464 28.5708 15.1752 28.5393 15.1994C28.5226 15.2185 28.4868 15.2209 28.4687 15.1972Z" fill="#660409"/>
<path d="M29.0918 15.1512C29.0918 15.1512 29.0918 15.1512 29.0848 15.1503C29.0667 15.1266 29.0712 15.0918 29.0949 15.0736L29.647 14.6497C29.647 14.6497 29.7055 14.6361 29.7237 14.6597C29.7419 14.6834 29.7373 14.7183 29.7136 14.7364L29.1615 15.1604C29.1615 15.1604 29.1169 15.1758 29.0979 15.1591L29.0918 15.1512Z" fill="#660409"/>
<path d="M28.7086 15.1004C28.7086 15.1004 28.7016 15.0995 28.6965 15.0846L28.4452 14.6757C28.4452 14.6757 28.4386 14.6181 28.4623 14.6C28.4859 14.5818 28.5199 14.5933 28.538 14.617L28.7893 15.0259C28.7893 15.0259 28.7959 15.0835 28.7722 15.1017C28.7495 15.1129 28.7286 15.1101 28.7095 15.0934L28.7086 15.1004Z" fill="#660409"/>
<path d="M29.4716 15.935C29.4298 15.9295 29.381 15.9231 29.3201 15.9009C29.1964 15.8705 28.9979 15.816 28.5517 15.7574C28.5029 15.751 28.4735 15.7046 28.479 15.6628C28.4845 15.6209 28.5318 15.5846 28.5737 15.5901C29.0268 15.6496 29.2393 15.7059 29.3629 15.7363C29.4187 15.7436 29.4517 15.7622 29.4936 15.7677C29.5424 15.7741 29.5717 15.8205 29.5663 15.8623C29.5608 15.9041 29.5134 15.9405 29.4716 15.935Z" fill="#660409"/>
<path d="M40.2157 19.2332C40.2157 19.2332 36.3088 17.6066 32.6832 17.7261C29.0576 17.8456 23.7768 17.6627 23.3908 16.3354C23.0049 15.0081 25.6547 13.7321 25.6547 13.7321L25.6869 13.325C25.6869 13.325 22.4891 14.5078 22.2984 16.5536C22.1077 18.5995 25.5517 16.4065 30.3255 22.5015C35.0994 28.5965 50.395 26.5062 48.2435 24.096C46.092 21.6858 41.2896 19.7501 40.2148 19.2401L40.2157 19.2332Z" fill="#D6CC59"/>
<path d="M29.9063 20.8285C29.3695 20.758 28.846 20.6396 28.3466 20.4463C28.2996 20.426 28.2772 20.3805 28.2976 20.3335C28.3179 20.2866 28.3625 20.2711 28.4104 20.2845C31.4637 21.4444 35.7377 20.0058 35.7753 19.9894C35.8268 19.9749 35.8729 20.0023 35.8883 20.0468C35.9037 20.0914 35.8755 20.1445 35.8309 20.1599C35.7942 20.1692 32.7299 21.1994 29.9063 20.8285Z" fill="#660409"/>
<path d="M31.205 23.5249C31.1632 23.5194 31.132 23.487 31.1305 23.4442C31.13 23.3945 31.1633 23.3563 31.214 23.3488C34.0648 23.1346 38.6899 20.9123 38.9794 20.6525C39.0118 20.6213 39.0685 20.6216 39.1058 20.662C39.137 20.6944 39.1366 20.7511 39.0963 20.7884C38.791 21.0603 34.1841 23.3063 31.2259 23.5277C31.2259 23.5277 31.212 23.5258 31.205 23.5249Z" fill="#660409"/>
<path d="M37.1903 26.1759C37.1903 26.1759 37.1303 26.1467 37.12 26.117C37.1046 26.0724 37.1328 26.0194 37.1704 26.0031C39.3557 25.2404 40.771 23.0505 40.8267 22.7883C40.8234 22.7595 40.8349 22.7255 40.8516 22.7065C40.8841 22.6753 40.9408 22.6756 40.9789 22.709C41.0162 22.7494 41.0019 22.8042 40.9991 22.8251C40.9221 23.1413 39.5241 25.3619 37.227 26.1665C37.213 26.1647 37.1982 26.1698 37.1842 26.168L37.1903 26.1759Z" fill="#660409"/>
<path d="M42.4946 26.5527C42.4946 26.5527 42.4406 26.5314 42.4294 26.5086C42.407 26.4632 42.4204 26.4153 42.4659 26.3929C44.2345 25.455 44.7125 24.1915 44.7143 24.1776C44.7277 24.1297 44.7801 24.1082 44.828 24.1216C44.8759 24.135 44.8974 24.1874 44.884 24.2353C44.8627 24.2893 44.389 25.5745 42.5522 26.546C42.5364 26.5582 42.5155 26.5554 42.5015 26.5536L42.4946 26.5527Z" fill="#660409"/>
<path d="M52.0968 18.5178C52.015 18.7624 51.9272 18.9991 51.8412 19.2218C51.1533 21.0038 50.3599 22.0769 49.8846 22.6173C49.6185 22.9156 49.452 23.0498 49.452 23.0498C49.3707 23.0746 49.2764 23.0906 49.1751 23.1056C47.8377 23.2988 44.8603 22.6949 41.282 20.1328C37.431 17.3788 37.799 13.335 35.859 9.74688C33.9259 6.1597 31.6369 7.06471 31.7248 6.39541C31.7733 6.0259 32.4291 5.89219 33.4631 5.68757L33.4701 5.68849C34.3303 5.51069 35.4664 5.28404 36.7095 4.83738C36.8878 4.7757 37.0749 4.70098 37.269 4.62718C37.366 4.59029 37.4631 4.55339 37.568 4.51043C37.8373 4.40396 38.1215 4.29235 38.4135 4.17468C39.0204 3.92815 39.6718 3.6662 40.3353 3.42002C40.7523 3.26911 41.1693 3.11821 41.5984 2.98308C42.1166 2.81711 42.6321 2.67205 43.1439 2.55488C43.2313 2.53799 43.3186 2.52109 43.3989 2.50327C44.3962 2.30802 45.3551 2.24248 46.2035 2.42483C46.343 2.44315 46.4718 2.48843 46.6015 2.52675C46.86 2.61035 47.1315 2.70275 47.4152 2.81093C48.2644 3.1494 49.1728 3.63042 50.0171 4.32995C50.3503 4.60067 50.672 4.90532 50.9733 5.25695C51.0842 5.38499 51.195 5.51302 51.304 5.65499C52.5497 7.29377 53.3764 9.6931 53.112 13.2186C52.9475 15.3885 52.5555 17.1313 52.0968 18.5178Z" fill="#ACD481"/>
<path d="M51.3443 14.093C51.3443 14.093 47.0329 14.6827 46.5465 14.4983C46.0601 14.3138 42.8854 10.9465 43.014 10.4528C43.1427 9.95906 45.2564 7.5275 45.7653 7.59434C46.2743 7.66119 51.153 8.69204 51.2791 9.02775C51.4052 9.36346 51.6597 14.0138 51.3513 14.0939L51.3443 14.093Z" fill="#507E3D"/>
<path d="M51.304 5.65542C50.9076 6.13527 50.4728 6.63843 50.2571 6.82286C49.8029 7.20292 45.8574 5.76273 45.494 5.55898C45.1829 5.39045 45.9655 3.10321 46.2035 2.42526C46.3429 2.44357 46.4717 2.48886 46.6015 2.52717C46.86 2.61077 47.1315 2.70318 47.4152 2.81135C48.2643 3.14983 49.1728 3.63084 50.0171 4.33038C50.3503 4.60109 50.672 4.90575 50.9733 5.25738C51.0841 5.38541 51.195 5.51345 51.304 5.65542Z" fill="#507E3D"/>
<path d="M43.0726 6.33908C42.9372 6.93831 39.1114 8.52799 38.8826 8.43411C38.6799 8.35784 37.5584 5.39498 37.2693 4.62651C37.3663 4.58962 37.4634 4.55272 37.5683 4.50976C37.8376 4.40329 38.1218 4.29168 38.4138 4.17401C39.0206 3.92748 39.6721 3.66552 40.3356 3.41935C40.7526 3.26844 41.1695 3.11754 41.5986 2.98241C42.1169 2.81644 42.6324 2.67138 43.1442 2.55421C43.2764 3.86943 43.1676 5.94021 43.0726 6.33908Z" fill="#507E3D"/>
<path d="M42.8812 19.5624C42.8812 19.5624 44.8508 16.1757 44.6651 15.7541C44.4793 15.3326 42.1892 11.656 42.1892 11.656L39.5957 11.3153C39.5957 11.3153 37.3899 12.9901 37.8442 13.8512C38.2984 14.7123 42.6523 19.9011 42.8812 19.5624Z" fill="#507E3D"/>
<path d="M51.8408 19.2207C51.1529 21.0026 50.3595 22.0757 49.8842 22.6161C50.1309 22.7903 50.1394 23.1035 50.0239 23.4429C49.7714 23.3672 49.4826 23.2442 49.1747 23.1045C47.4883 22.3369 45.2356 20.9134 45.2356 20.9134C45.2356 20.9134 45.2657 20.8464 45.3101 20.7246C45.5741 20.0642 46.4096 17.9683 46.7676 17.3487C47.1909 16.61 50.8203 16.5689 51.2231 16.7424C51.471 16.853 51.8488 17.8104 52.0964 18.5167C52.0146 18.7612 51.9268 18.9979 51.8408 19.2207Z" fill="#507E3D"/>
<path d="M39.1954 8.15497L39.1884 8.15405C38.6743 8.07235 37.6784 5.12597 37.4797 4.53251C37.4643 4.48793 37.4925 4.4349 37.5371 4.41948C37.5817 4.40406 37.6347 4.4323 37.6502 4.47688C38.2092 6.16021 38.9413 7.9301 39.2183 7.98067C39.4972 8.0173 40.7255 7.41269 41.5634 6.75679C42.1322 6.31378 42.2113 6.09012 42.2213 6.01343C42.3064 5.09554 41.5213 3.0279 41.517 3.00607C41.5016 2.96149 41.5299 2.90847 41.5675 2.89213C41.612 2.87671 41.666 2.89798 41.6814 2.94255C41.7123 3.03171 42.4802 5.06871 42.3965 6.02935C42.3751 6.24639 42.1308 6.54054 41.6724 6.89877C40.8985 7.49924 39.5858 8.20625 39.1954 8.15497Z" fill="#660409"/>
<path d="M39.6066 6.26545C39.4672 6.24714 39.3593 6.2046 39.3039 6.14058C39.0892 5.88543 38.3648 4.27259 38.3313 4.20435C38.3089 4.15886 38.3301 4.10491 38.3747 4.08949C38.4202 4.0671 38.4742 4.08837 38.4896 4.13295C38.6986 4.59302 39.2657 5.83769 39.4319 6.02974C39.5306 6.142 40.0975 6.14554 41.164 5.90972C41.2659 5.78127 40.8534 4.65619 40.2452 3.45574C40.2228 3.41025 40.2431 3.36328 40.2816 3.33997C40.3202 3.31666 40.3741 3.33793 40.3974 3.37645C40.5835 3.74132 41.4956 5.59867 41.3179 5.97958C41.2966 6.03353 41.2502 6.06289 41.1987 6.0774C40.6432 6.20302 39.9901 6.31581 39.5927 6.26362L39.6066 6.26545Z" fill="#660409"/>
<path d="M38.2778 10.5531C38.2359 10.5476 38.2047 10.5151 38.2042 10.4654C38.2106 10.4166 38.244 10.3784 38.2937 10.3779C39.5943 10.3572 41.687 10.2987 41.949 10.248C42.1069 9.96381 42.9171 8.70855 44.37 6.50224L43.3107 2.52628C43.2953 2.4817 43.3235 2.42867 43.3741 2.42114C43.4257 2.40663 43.4718 2.43396 43.4793 2.48459L44.548 6.49725C44.548 6.49725 44.5485 6.54696 44.5388 6.56696C43.5905 8.00976 42.1524 10.2109 42.0914 10.3518C42.0813 10.4285 42.0721 10.4982 38.2908 10.5619C38.2908 10.5619 38.2838 10.561 38.2768 10.56L38.2778 10.5531Z" fill="#660409"/>
<path d="M50.5652 7.71319L44.4485 6.60484C44.3997 6.59843 44.3703 6.55202 44.3767 6.50322C44.3831 6.45441 44.4295 6.42505 44.4783 6.43146L50.5951 7.53981C50.6439 7.54622 50.6732 7.59263 50.6668 7.64143C50.6604 7.69024 50.614 7.7196 50.5722 7.71411L50.5652 7.71319Z" fill="#660409"/>
<path d="M46.579 13.8194C46.4326 13.8002 46.3447 13.7673 46.3005 13.7261C46.1566 13.5795 45.5386 12.8317 44.9932 12.1785C44.6131 11.7243 44.2582 11.2947 44.1655 11.1904C44.0104 11.0211 44.1586 10.4873 44.6132 9.61798C44.727 9.39889 45.3192 8.29229 45.5214 8.31884C45.5423 8.32159 45.6687 8.3311 45.8588 8.34188C49.7862 8.62369 50.393 8.80976 50.4723 8.96202C50.6248 9.25864 51.0343 13.1067 50.7095 13.5818C50.6567 13.6599 50.5921 13.6656 50.5572 13.6611C50.4178 13.6427 49.9309 13.6781 49.3585 13.7164C47.9066 13.8094 47.0071 13.8543 46.5748 13.7976L46.579 13.8194ZM45.5255 8.50377C45.3422 8.65701 44.3807 10.2541 44.2876 10.9085C44.2702 11.041 44.2945 11.0725 44.3005 11.0804C44.4002 11.1857 44.736 11.5986 45.1351 12.0695C45.6805 12.7227 46.2926 13.4626 46.4374 13.6022C46.61 13.7454 48.3988 13.6258 49.3647 13.5612C49.9659 13.5196 50.4379 13.4894 50.5922 13.5025C50.8377 13.3078 50.5304 9.43772 50.3331 9.05011C50.2325 8.9518 49.3762 8.77551 45.8638 8.51984C45.7025 8.50575 45.59 8.49807 45.5403 8.49863L45.5255 8.50377Z" fill="#660409"/>
<path d="M47.4136 12.9154C47.2951 12.8998 47.2063 12.874 47.1472 12.8379C47.03 12.7586 45.3418 11.3029 45.5928 10.9032C45.6201 10.8572 45.6651 10.7851 45.71 10.713C46.1181 10.0361 46.3724 9.66523 46.581 9.64298C46.6089 9.64665 49.352 9.4963 49.4229 9.87441L49.4872 10.1949C49.8889 12.2122 49.9294 12.7139 49.7162 12.771C49.5913 12.8043 48.0759 13.0024 47.4066 12.9145L47.4136 12.9154ZM48.9861 9.85249C48.3447 9.76825 46.8671 9.78694 46.6079 9.81672C46.449 9.8384 46.0312 10.5353 45.8682 10.8047C45.8223 10.8837 45.7774 10.9559 45.7501 11.0019C45.6477 11.187 46.836 12.3998 47.251 12.6955C47.4916 12.8618 49.3383 12.6789 49.6597 12.6076C49.7499 12.4067 49.4744 10.9946 49.3195 10.2296L49.2604 9.92398C49.2222 9.8906 49.1255 9.87081 48.9861 9.85249Z" fill="#660409"/>
<path d="M45.9016 16.0088C45.9016 16.0088 45.8667 16.0042 45.8528 16.0024C45.524 15.8599 42.5286 11.2892 41.9325 10.3741C41.9092 10.3356 41.9165 10.2798 41.956 10.2495C41.9954 10.2192 42.0503 10.2335 42.0805 10.273C43.4853 12.4291 45.6733 15.6951 45.9245 15.8345C45.9245 15.8345 45.9384 15.8363 45.9524 15.8382C46.3567 15.8913 49.6753 15.3555 51.7228 14.9933C51.7665 14.9848 51.8186 15.02 51.8271 15.0637C51.8346 15.1143 51.8003 15.1595 51.7566 15.1679C50.8634 15.3272 46.5012 16.0875 45.9016 16.0088Z" fill="#660409"/>
<path d="M44.0279 19.905L43.8679 19.8272C43.8679 19.8272 45.7479 15.9891 45.8053 15.8761C45.8247 15.8361 45.8772 15.8146 45.9241 15.835C45.9711 15.8553 45.9856 15.9069 45.9653 15.9538C45.9079 16.0669 44.0279 19.905 44.0279 19.905Z" fill="#660409"/>
<path d="M45.69 21.0152C45.69 21.0152 45.6691 21.0124 45.6621 21.0115C45.6221 20.9921 45.6007 20.9396 45.628 20.8935C45.7525 20.6475 46.8691 18.5176 47.2079 18.3139C47.5389 18.1162 50.7139 17.3772 51.1023 17.6055C51.4777 17.825 51.8765 19.0547 51.9228 19.1884C51.9382 19.233 51.91 19.286 51.8654 19.3015C51.8138 19.316 51.7678 19.2886 51.7524 19.2441C51.6369 18.8814 51.2749 17.9119 51.0116 17.7567C50.7092 17.5752 47.6181 18.2684 47.2951 18.4601C47.0719 18.5939 46.2463 20.074 45.781 20.9704C45.7625 21.0034 45.7249 21.0197 45.69 21.0152Z" fill="#660409"/>
<path d="M42.3144 18.5859C42.3144 18.5859 42.2865 18.5823 42.2744 18.5665C42.2353 18.5401 42.2287 18.4825 42.2551 18.4434C43.1626 17.2576 44.0911 15.9115 44.0671 15.7169C43.9164 15.4063 42.3905 12.823 42.1105 12.6869C41.9244 12.5915 40.5315 13.1533 39.3296 13.7188C39.291 13.7421 39.2371 13.7208 39.2147 13.6753C39.1923 13.6298 39.2136 13.5759 39.2582 13.5605C39.8626 13.2782 41.8561 12.3556 42.1952 12.5278C42.5543 12.7097 44.1307 15.4486 44.2323 15.6464C44.3607 15.9115 43.1414 17.5811 42.3975 18.5472C42.3799 18.5733 42.3432 18.5826 42.3153 18.579L42.3144 18.5859Z" fill="#660409"/>
<path d="M41.5451 17.748C41.5451 17.748 41.5102 17.7434 41.4981 17.7276C41.4599 17.6942 41.4603 17.6375 41.4858 17.6054C42.0964 16.8984 43.0778 15.7436 43.1801 15.5585C43.1408 15.4257 42.7215 14.8387 42.4119 14.5498C42.2662 14.4172 41.3582 15.1206 40.4488 16.0508C40.4164 16.082 40.3588 16.0886 40.3285 16.0492C40.2973 16.0167 40.2907 15.9591 40.3301 15.9288C40.8787 15.3697 42.1931 14.1097 42.5348 14.4241C42.8002 14.6717 43.3722 15.3922 43.3623 15.5753C43.3577 15.6102 43.3561 15.7306 41.6263 17.7232C41.6087 17.7492 41.579 17.7595 41.5511 17.7559L41.5451 17.748Z" fill="#660409"/>
<path d="M50.0245 23.4445C49.7977 24.1452 49.0949 24.9607 49.0949 24.9607C49.0949 24.9607 40.8987 24.2956 37.9626 18.1937C35.0343 12.0858 35.7466 8.93112 30.4283 8.16878C28.3716 7.89865 27.2316 9.72052 26.9776 10.0347C26.7236 10.3488 26.4088 9.77557 26.7802 9.10804C27.1594 8.43446 28.0447 7.04011 28.5625 6.66133C29.0813 6.27556 30.1978 5.54989 31.0973 5.50492C31.4402 5.48612 32.3667 5.45178 33.4633 5.68801L33.4703 5.68893C35.2001 6.07215 37.3364 7.13996 38.1669 10.0504C38.2053 10.1902 38.2506 10.3309 38.289 10.4707C38.4392 11.0011 38.5963 11.5323 38.7605 12.0645C38.9246 12.5967 39.1036 13.1238 39.2975 13.6457C39.6039 14.4448 39.9548 15.2285 40.394 15.9883C40.7228 16.5633 41.1039 17.1169 41.5567 17.6658C41.7896 17.9446 42.0503 18.227 42.326 18.5044C42.5643 18.7414 42.8176 18.9732 43.0926 19.2008C43.3607 19.4275 43.6506 19.65 43.9554 19.8673C44.3705 20.163 44.8222 20.4492 45.3116 20.7192C45.4367 20.7924 45.5689 20.8665 45.7019 20.9336C46.1061 21.1498 46.54 21.3557 46.9967 21.5504C47.3455 21.7026 47.7092 21.8497 48.0877 21.9916C48.4123 22.1122 48.7517 22.2277 49.106 22.3381C49.2897 22.3977 49.4803 22.4582 49.6779 22.5196C49.7597 22.5445 49.8267 22.5746 49.8849 22.6177C50.1315 22.7919 50.14 23.1051 50.0245 23.4445Z" fill="#5E5814"/>
</g>
</g>
<rect x="21.1092" y="1.04442" width="25.2816" height="25.2816" rx="12.6408" stroke="#FCFBF9" stroke-width="1.20389"/>
<g clip-path="url(#clip3_48_10620)">
<rect x="41.7759" y="1.64636" width="24.0777" height="24.0777" rx="12.0389" fill="#35BBFF"/>
<path d="M54.1078 19.0343C54.0181 18.7178 56.0211 4.60206 63.2109 9.22942C71.4471 14.52 59.5189 23.9254 59.5189 23.9254L55.5428 23.1416L54.1078 19.0343Z" fill="#F4B043"/>
<path d="M58.8966 23.0555C67.282 18.028 65.7654 8.22497 65.817 8.29912C65.9642 8.50675 72.2661 20.8977 58.6758 25.028L58.8966 23.0555Z" fill="#F96C27"/>
<path d="M56.8208 23.4635C56.3276 23.6934 54.8846 11.7103 63.8295 7.48364C63.8295 7.48364 66.3694 19.0663 56.8208 23.4635Z" fill="#F96C27"/>
<path d="M55.4076 20.8614C53.7511 10.8137 60.9733 6.5944 60.8849 6.62406C60.6493 6.70562 48.1707 9.98317 54.4284 23.3307L55.4076 20.8614Z" fill="#F96C27"/>
<path d="M52.6833 17.0111C52.7422 17.1372 51.6747 24.6488 56.7398 25.4497C59.9423 25.9539 63.8147 22.4465 63.8147 22.4465L61.4662 22.8024L62.0184 21.0154C62.0184 21.0154 59.9128 21.6012 59.1251 22.1054C59.3828 21.3713 58.8969 19.5323 58.8969 19.5323C58.8969 19.5323 57.6232 20.0736 57.0932 21.6605C57.0122 21.1266 56.7472 18.8872 56.7472 18.8872L55.5324 21.312L54.7962 18.5831C54.7962 18.5831 54.1631 19.7399 54.0011 21.1414C53.6772 20.4444 52.6833 17.0111 52.6833 17.0111Z" fill="#8FA417"/>
<path d="M37.8088 10.3661C37.9744 10.6196 38.0293 27.1618 49.1404 27.296C56.165 27.3763 63.3743 18.5906 63.3743 18.5906L58.4494 20.0974L59.0758 16.0681C59.0758 16.0681 54.7436 17.9945 53.2117 19.3302C53.5352 17.6653 51.9194 13.8506 51.9194 13.8506C51.9194 13.8506 49.3573 15.4192 48.7158 19.0096C48.3755 17.8832 47.1084 13.1351 47.1084 13.1351L45.2603 18.7488L42.8301 13.093C42.8301 13.093 41.8334 15.788 41.9234 18.8626C41.0113 17.4607 37.8088 10.3661 37.8088 10.3661Z" fill="#8FA417"/>
<g clip-path="url(#clip4_48_10620)">
<path d="M64.9765 24.1642L48.1295 18.514C48.1295 18.514 46.5307 26.2615 49.5951 29.5924C52.6596 32.9233 54.2189 33.4661 60.5156 31.9067C62.5585 31.3688 64.0142 29.1088 64.335 28.0873C64.6557 27.0658 64.9814 24.1593 64.9814 24.1593L64.9765 24.1642Z" fill="#63A7BE"/>
<path d="M52.7784 30.3724L52.7439 29.8789C52.7686 29.8789 55.3494 29.6766 56.0847 28.5318C56.0699 28.5268 56.0551 28.5219 56.0403 28.512C55.3593 28.2307 55.0484 27.9593 55.0484 27.6682C55.0484 27.5004 55.1619 27.3573 55.3395 27.2833C55.6603 27.155 56.208 27.2339 56.514 27.5498C56.6225 27.6633 56.7607 27.8754 56.7262 28.1962C57.3035 28.2801 57.8562 28.0975 58.3743 27.6336C58.4977 27.5251 58.6112 27.4017 58.7148 27.2784C58.6754 27.2093 58.6556 27.1402 58.6458 27.0908C58.5026 26.4493 59.1145 25.3292 59.5587 25.2157C59.7462 25.1663 59.9189 25.2699 59.9732 25.4673C60.0719 25.8078 59.8449 26.5085 59.4156 27.1599C59.4846 27.1649 59.5833 27.15 59.687 27.1303C60.669 26.9428 61.2513 26.0743 61.5473 25.3538C61.5079 25.2403 61.4881 25.1071 61.4931 24.9591C61.5029 24.6975 61.6263 24.1004 61.9322 24.0264L62.1148 23.982L62.2481 24.1695C62.3566 24.3669 62.2481 24.8554 62.0951 25.2946C62.0951 25.2946 62.1 25.2946 62.105 25.2946C62.3665 25.3785 63.4817 24.7321 64.5575 23.8833L64.8634 24.2731C64.3502 24.6778 62.6231 25.9756 61.9569 25.7683C61.9421 25.7683 61.9273 25.7585 61.9125 25.7535C61.6312 26.3556 60.9799 27.3869 59.7807 27.6188C59.4748 27.6781 59.2527 27.6583 59.0899 27.5991C58.9665 27.7422 58.8382 27.8804 58.7 28.0037C58.0437 28.586 57.3183 28.813 56.5683 28.6749C55.7836 30.1405 52.9018 30.3625 52.7784 30.3724ZM55.6109 27.7225C55.6948 27.7916 55.8725 27.91 56.2278 28.0531C56.2278 28.0531 56.2327 28.0531 56.2376 28.0531C56.2278 27.9544 56.1735 27.8952 56.1241 27.8557C55.981 27.7373 55.754 27.7077 55.6109 27.7175V27.7225ZM59.4402 25.9855C59.3169 26.1779 59.1984 26.4296 59.1442 26.6566C59.2823 26.4098 59.381 26.173 59.4402 25.9855Z" fill="#F2724B"/>
<path d="M66.0382 25.6509C67.0104 24.5899 67.7851 17.8887 67.7851 17.8887L64.0792 18.3723L62.9096 23.0553L63.1268 18.8263L62.0757 18.8509C62.0757 18.8509 61.9819 24.8465 61.8586 25.6509C61.7352 26.4552 64.0101 27.8715 66.0432 25.6509H66.0382Z" fill="#6559DE"/>
<path d="M65.1302 21.4562C65.1302 21.4562 65.1253 21.4562 65.1203 21.4562C65.0858 21.4562 65.0611 21.4217 65.0661 21.3871L65.5151 18.1648C65.5151 18.1302 65.5497 18.1056 65.5842 18.1105C65.6187 18.1105 65.6434 18.145 65.6385 18.1796L65.1894 21.4019C65.1894 21.4315 65.1598 21.4562 65.1302 21.4562Z" fill="#7B7FDA"/>
<path d="M63.8075 26.8399C63.8075 26.8399 63.2745 29.7514 62.4702 32.1052C62.0063 33.4771 61.4487 34.6565 60.8565 34.9723C59.2429 35.8309 53.4299 37.6074 49.5858 35.293C45.7367 32.9836 43.2349 28.2118 45.6825 19.5366C46.018 18.3474 48.4212 18.8359 50.4641 19.5909C51.2537 19.8821 51.989 20.2127 52.5318 20.5038C57.2296 23.0254 64.1628 23.7607 63.8075 26.835V26.8399Z" fill="#7B7FDA"/>
<path d="M67.0885 24.1642L50.2416 18.514C50.2416 18.514 48.6428 26.2615 51.7072 29.5924C54.7716 32.9233 56.331 33.4661 62.6276 31.9067C64.6706 31.3688 66.1263 29.1088 66.447 28.0873C66.7678 27.0658 67.0935 24.1593 67.0935 24.1593L67.0885 24.1642Z" fill="#6559DE"/>
<path d="M54.8749 30.1893C54.8403 30.1893 54.8157 30.1646 54.8157 30.1301C54.8157 30.0956 54.8403 30.066 54.8749 30.066C54.9045 30.066 57.8357 29.839 58.4575 28.4424C58.4575 28.4424 58.4575 28.4326 58.4624 28.4276C58.3834 28.403 58.3045 28.3734 58.2255 28.3438C57.6432 28.102 57.3472 27.875 57.3472 27.6726C57.3472 27.5789 57.4113 27.5049 57.5248 27.4604C57.7863 27.3568 58.2551 27.4308 58.4969 27.6825C58.6154 27.8059 58.7239 28.0181 58.6252 28.3487C59.4888 28.5609 60.1747 28.171 60.6139 27.7763C60.7817 27.6282 60.9297 27.4654 61.063 27.2927C60.9988 27.2186 60.9643 27.1348 60.9445 27.0509C60.8212 26.4883 61.3985 25.4767 61.7242 25.3928C61.818 25.3682 61.887 25.4126 61.9167 25.5162C62.0055 25.8172 61.7341 26.5919 61.2357 27.268C61.3689 27.3519 61.5712 27.3667 61.8476 27.3124C62.8296 27.1249 63.4069 26.3304 63.7178 25.7037C63.777 25.5853 63.8264 25.4718 63.8708 25.3583C63.8214 25.2547 63.7968 25.1214 63.8017 24.9635C63.8116 24.6576 63.9547 24.2381 64.1027 24.2036C64.1471 24.1937 64.1866 24.2134 64.2113 24.2579C64.2754 24.3763 64.1965 24.8451 64.009 25.3484C64.0484 25.4076 64.1076 25.452 64.1767 25.4718C64.6357 25.6198 66.2296 24.4799 66.802 24.0309C66.8266 24.0111 66.8661 24.0161 66.8859 24.0407C66.9056 24.0654 66.9007 24.1049 66.876 24.1246C66.6589 24.2973 64.7492 25.7827 64.1373 25.5853C64.0632 25.5606 64.004 25.5261 63.9547 25.4718C63.93 25.531 63.9053 25.5951 63.8757 25.6544C63.6092 26.2218 62.9973 27.2088 61.8673 27.4259C61.5169 27.495 61.2949 27.4506 61.1567 27.3618C61.0185 27.5394 60.8656 27.7072 60.6978 27.8552C60.229 28.2697 59.5036 28.6842 58.5858 28.4523L58.571 28.4819C57.9146 29.9426 55.0081 30.1696 54.8848 30.1794L54.8749 30.1893ZM57.7962 27.5394C57.7074 27.5394 57.6284 27.5542 57.5692 27.5739C57.5248 27.5937 57.4705 27.6233 57.4705 27.6726C57.4705 27.7812 57.6778 27.9835 58.2699 28.2303C58.3489 28.2648 58.4278 28.2895 58.5019 28.3141C58.571 28.0921 58.5364 27.9095 58.4032 27.7664C58.2502 27.6036 57.9985 27.5394 57.7962 27.5394ZM61.7637 25.5162C61.7637 25.5162 61.7538 25.5162 61.7489 25.5162C61.5169 25.5754 60.9495 26.513 61.063 27.0262C61.0778 27.0903 61.1024 27.1446 61.137 27.189C61.6255 26.5229 61.8624 25.7925 61.7933 25.5507C61.7834 25.5162 61.7736 25.5113 61.7637 25.5113V25.5162ZM64.1027 24.3516C64.0336 24.4404 63.9004 24.7711 63.9201 25.0819C63.9201 25.1165 63.9251 25.151 63.9349 25.1806C64.078 24.7711 64.1175 24.4503 64.1027 24.3516Z" fill="#6EBED9"/>
<path d="M50.7744 5.37391C50.7744 5.37391 50.0144 5.50715 49.896 5.37391C49.7776 5.24067 51.8995 4.7324 51.8995 4.7324C51.8995 4.7324 51.0507 4.07609 51.4948 3.87871C51.939 3.68132 55.4574 4.7176 55.3735 6.67666C55.2896 8.63572 52.8025 19.9114 52.2696 21.377C51.7416 22.8426 43.7721 25.7047 45.7657 19.0183C47.7692 12.3269 50.7744 5.37391 50.7744 5.37391Z" fill="#6559DE"/>
<path d="M51.3563 7.79247C51.3563 7.79247 53.3252 7.25459 53.9766 6.93877C54.628 6.62296 55.2053 6.20844 54.6477 5.66563C54.0901 5.12282 51.4698 4.99452 50.9664 5.84821C50.4631 6.70191 51.3513 7.78754 51.3513 7.78754L51.3563 7.79247Z" fill="#7B7FDA"/>
<path d="M52.5117 8.20293C53.2075 8.4546 54.2882 8.24241 54.5152 7.27521C54.7422 6.30802 53.3456 5.75534 52.5216 6.32776C51.6975 6.90018 51.7567 7.92659 52.5117 8.198V8.20293Z" fill="white"/>
<path d="M53.5771 8.0157C54.0731 8.0157 54.4752 7.6136 54.4752 7.11759C54.4752 6.62158 54.0731 6.21948 53.5771 6.21948C53.0811 6.21948 52.679 6.62158 52.679 7.11759C52.679 7.6136 53.0811 8.0157 53.5771 8.0157Z" fill="#660409"/>
<path d="M52.8422 7.02851C52.9403 7.02851 53.0198 6.94898 53.0198 6.85087C53.0198 6.75275 52.9403 6.67322 52.8422 6.67322C52.7441 6.67322 52.6646 6.75275 52.6646 6.85087C52.6646 6.94898 52.7441 7.02851 52.8422 7.02851Z" fill="white"/>
<path d="M49.9104 7.81682C50.6062 8.06849 51.6868 7.8563 51.9138 6.88911C52.1408 5.92191 50.7443 5.36923 49.9202 5.94165C49.0961 6.51407 49.1554 7.54048 49.9104 7.81189V7.81682Z" fill="white"/>
<path d="M50.9726 7.62739C51.4686 7.62739 51.8707 7.2253 51.8707 6.72929C51.8707 6.23327 51.4686 5.83118 50.9726 5.83118C50.4766 5.83118 50.0745 6.23327 50.0745 6.72929C50.0745 7.2253 50.4766 7.62739 50.9726 7.62739Z" fill="#660409"/>
<path d="M50.2367 6.64521C50.3348 6.64521 50.4144 6.56568 50.4144 6.46757C50.4144 6.36945 50.3348 6.28992 50.2367 6.28992C50.1386 6.28992 50.0591 6.36945 50.0591 6.46757C50.0591 6.56568 50.1386 6.64521 50.2367 6.64521Z" fill="white"/>
<path d="M51.1445 9.03518C52.1265 9.33126 52.4029 8.13214 51.638 7.60413L48.7068 7.92488C48.7068 7.92488 50.1823 8.74403 51.1445 9.03518Z" fill="#FF6531"/>
<path d="M51.1248 8.92711C50.7004 8.92711 50.2464 8.7544 50.2168 8.73959C50.1872 8.72972 50.1675 8.69025 50.1823 8.66064C50.1921 8.63103 50.2316 8.61129 50.2612 8.62609C50.2711 8.62609 51.3173 9.03074 51.6429 8.62116C51.6627 8.59155 51.7022 8.59155 51.7318 8.61129C51.7564 8.63103 51.7614 8.67051 51.7416 8.70011C51.5985 8.87283 51.3666 8.93204 51.1248 8.93204V8.92711Z" fill="#660409"/>
</g>
</g>
<rect x="41.1739" y="1.04442" width="25.2816" height="25.2816" rx="12.6408" stroke="#FCFBF9" stroke-width="1.20389"/>
<defs>
<clipPath id="clip0_48_10620">
<rect x="1.64624" y="1.64636" width="24.0777" height="24.0777" rx="12.0389" fill="white"/>
</clipPath>
<clipPath id="clip1_48_10620">
<rect x="21.7112" y="1.64636" width="24.0777" height="24.0777" rx="12.0389" fill="white"/>
</clipPath>
<clipPath id="clip2_48_10620">
<rect width="30.152" height="24.7657" fill="white" transform="translate(24.5337 -0.466919) rotate(7.48256)"/>
</clipPath>
<clipPath id="clip3_48_10620">
<rect x="41.7759" y="1.64636" width="24.0777" height="24.0777" rx="12.0389" fill="white"/>
</clipPath>
<clipPath id="clip4_48_10620">
<rect width="23.0745" height="39.7191" fill="white" transform="translate(44.7107 3.85449)"/>
</clipPath>
</defs>
</svg>
