<svg width="19" height="24" viewBox="0 0 19 24" fill="none" xmlns="http://www.w3.org/2000/svg">
<path d="M14.5938 6.41484C14.5938 6.97174 14.1424 7.42319 13.5855 7.42319C13.0286 7.42319 12.5771 6.97174 12.5771 6.41484C12.5771 5.85795 13.0286 5.40649 13.5855 5.40649C14.1424 5.40649 14.5938 5.85795 14.5938 6.41484Z" stroke="white" stroke-width="1.5" stroke-miterlimit="10" stroke-linejoin="round"/>
<path d="M10.6569 17.231C15.932 13.8888 18.5176 7.35012 16.7758 0.857117C10.2828 2.59468 5.90982 8.10667 5.65625 14.3461L10.6569 17.231Z" stroke="white" stroke-width="1.5" stroke-miterlimit="10" stroke-linejoin="round"/>
<path d="M10.6553 17.231C11.5698 18.7108 11.815 20.5648 11.4077 22.2857C13.8976 20.598 15.3276 17.1562 14.1553 14.0801" stroke="white" stroke-width="1.5" stroke-miterlimit="10" stroke-linejoin="round"/>
<path d="M5.68415 14.3632C3.94659 14.3134 2.21734 15.0283 0.928711 16.238C1.14487 13.2367 3.41035 10.2812 6.66101 9.7533" stroke="white" stroke-width="1.5" stroke-miterlimit="10" stroke-linejoin="round"/>
<path d="M9.93272 16.8191C9.2219 18.9349 7.4012 20.5977 5.03595 21.1921C4.3667 18.8477 4.89877 16.4367 6.37446 14.7656" stroke="white" stroke-width="1.5" stroke-miterlimit="10" stroke-linejoin="round"/>
</svg>
