<svg width="43" height="44" viewBox="0 0 43 44" fill="none" xmlns="http://www.w3.org/2000/svg">
<g clip-path="url(#clip0_1_8536)">
<rect x="1.59375" y="2" width="40" height="40" rx="20" fill="#35BBFF"/>
<path fill-rule="evenodd" clip-rule="evenodd" d="M8.77534 49.3599C11.2274 45.0988 15.8584 35.7331 13.5224 29.2102C9.88087 19.05 -0.473708 19.4075 -0.473708 19.4075L6.88033 49.5435L4.97634 49.729C3.71611 45.1655 0.412908 35.234 -5.2107 31.8124C-12.9874 27.0844 -24.2344 33.0624 -24.2344 33.0624C-24.2344 33.0624 -14.2973 38.1778 -7.53956 41.9882C-5.04537 43.3961 0.250162 47.6647 3.29168 50.1742L1.68986 51.4475C-1.2906 48.9837 -6.57229 45.0835 -11.5868 43.7315C-18.994 41.7354 -24.426 45.8393 -24.426 45.8393C-24.426 45.8393 -13.2185 53.5152 2.94598 54.1624C3.11253 55.4112 3.36189 59.0186 2.35142 66.6622C1.37646 74.0529 -1.07637 90.6143 -1.07637 90.6143L2.95874 91.4529C2.95874 91.4529 5.80599 75.6308 6.51438 70.4902C6.96159 67.236 7.72287 59.8997 8.2372 54.7906C28.0967 51.7337 17.2877 33.4771 17.2877 33.4771C16.6565 40.8017 11.476 47.7331 8.61046 51.0433C8.71179 50.015 8.77256 49.3886 8.77534 49.3599Z" fill="#5C6332"/>
<mask id="mask0_1_8536" style="mask-type:alpha" maskUnits="userSpaceOnUse" x="-25" y="19" width="46" height="73">
<path fill-rule="evenodd" clip-rule="evenodd" d="M8.77495 49.3599C11.227 45.0988 15.8581 35.7331 13.522 29.2102C9.88048 19.05 -0.474099 19.4075 -0.474099 19.4075L6.87994 49.5435L4.97595 49.7291C3.71572 45.1655 0.412518 35.234 -5.21109 31.8125C-12.9878 27.0844 -24.2348 33.0624 -24.2348 33.0624C-24.2348 33.0624 -14.2977 38.1779 -7.53995 41.9882C-5.04576 43.3961 0.249771 47.6647 3.29129 50.1742L1.68977 51.4473C-1.29064 48.9835 -6.57251 45.0831 -11.5872 43.731C-18.9944 41.735 -24.4264 45.8388 -24.4264 45.8388C-24.4264 45.8388 -13.219 53.5147 2.94553 54.1619C3.11207 55.4103 3.36163 59.0176 2.35103 66.6622C1.37607 74.0529 -1.07676 90.6143 -1.07676 90.6143L2.95836 91.4529C2.95836 91.4529 5.8056 75.6308 6.51399 70.4902C6.96121 67.2359 7.72253 59.8993 8.23686 54.7901C28.0963 51.7332 17.2873 33.4767 17.2873 33.4767C16.6562 40.8012 11.4757 47.7325 8.61012 51.0428C8.71142 50.0148 8.77217 49.3886 8.77495 49.3599Z" fill="#68BC98"/>
</mask>
<g mask="url(#mask0_1_8536)">
<path d="M-4.95333 26.6328C-4.4253 27.1505 0.670622 25.522 3.62168 24.6328C6.29942 23.8261 5.94054 22.8222 3.2899 23.4986C1.32111 23.9993 -2.69171 25.16 -3.99171 25.6572C-4.43878 25.8266 -5.28474 26.3081 -4.95333 26.6328Z" fill="#8FA417"/>
<path d="M-1.75581 32.8414C-1.32522 33.313 3.16405 32.138 5.7571 31.5047C8.11124 30.9286 7.84738 30.0448 5.52333 30.5073C3.79479 30.8508 0.270726 31.6726 -0.875785 32.0399C-1.27147 32.1649 -2.02452 32.5427 -1.75581 32.8414Z" fill="#8FA417"/>
<path d="M0.290877 36.2743C0.693319 36.6785 4.4178 35.61 6.57457 35.0318C8.53168 34.5092 8.24202 33.7496 6.30179 34.1753C4.86113 34.4911 1.92602 35.2411 0.978404 35.572C0.653167 35.6857 0.038654 36.0211 0.290877 36.2743Z" fill="#8FA417"/>
<path d="M7.62615 26.2874C7.09372 25.7752 2.01534 27.4754 -0.921056 28.4032C-3.58659 29.2448 -3.21398 30.2451 -0.575545 29.5339C1.38597 29.0057 5.38113 27.7896 6.67439 27.278C7.12274 27.1024 7.96131 26.6096 7.62615 26.2874Z" fill="#8FA417"/>
<path d="M1.91675 38.6785C3.17793 38.3836 4.45583 38.102 5.32509 37.9297C7.92664 37.4115 8.22335 38.4025 5.58913 39.0467C4.636 39.2792 3.45136 39.5803 2.27499 39.8571C2.14658 39.4451 2.02129 39.0337 1.91675 38.6785Z" fill="#8FA417"/>
<path d="M14.237 38.2499C14.328 37.89 14.4172 37.5232 14.5089 37.1602C15.6216 38.0164 16.931 39.0656 17.709 39.7227C19.414 41.1619 18.9157 41.8743 17.1107 40.4792C16.289 39.8454 15.2133 39.0292 14.237 38.2499ZM13.4459 41.3851C13.5279 41.0687 13.6202 40.7025 13.7234 40.2998C15.5603 41.6821 17.5279 43.2308 17.4612 43.6768C17.4062 44.0507 16.6788 43.7279 16.3528 43.5176C15.7807 43.1494 14.5897 42.264 13.4459 41.3851ZM11.0034 46.1005C11.8533 46.7856 13.0249 47.7803 13.6751 48.3655C14.8796 49.4513 14.5089 50.0024 13.235 48.954C12.4847 48.3351 11.4286 47.4874 10.6194 46.7622C10.7468 46.5394 10.8773 46.3172 11.0034 46.1005ZM9.58158 48.5412C9.91504 48.8404 10.2169 49.1201 10.4643 49.3496C12.0439 50.8307 11.5229 51.4963 9.84464 50.053C9.61071 49.8522 9.35204 49.6301 9.08158 49.4023C9.24299 49.1249 9.41008 48.8359 9.58158 48.5412ZM12.2264 44.0233C12.4016 43.7262 12.5598 43.4644 12.689 43.2484C13.5826 44.0202 14.5947 44.9235 15.2083 45.4979C16.6166 46.8203 16.1559 47.4142 14.6564 46.1247C13.9627 45.5304 13.0467 44.7572 12.2264 44.0233Z" fill="#8FA417"/>
</g>
<path fill-rule="evenodd" clip-rule="evenodd" d="M29.1658 0.735954C24.2492 0.750129 13.8247 1.43763 9.35159 6.72837C2.38523 14.9721 7.88483 23.7528 7.88483 23.7528L30.2756 2.28344L31.3893 3.83627C28.0721 7.21436 21.1344 15.0506 20.9925 21.6316C20.7994 30.7307 31.6097 37.4664 31.6097 37.4664C31.6097 37.4664 31.0552 26.3036 30.965 18.5462C30.933 15.6824 31.9722 8.96093 32.6191 5.07112L34.5247 5.81929C33.8867 9.63305 33.1589 16.1593 34.5026 21.1767C36.4884 28.5867 42.7622 31.23 42.7622 31.23C42.7622 31.23 43.7865 17.6836 36.2432 3.37135C37.2401 2.60139 40.2365 0.577335 47.3575 -2.37984C54.2414 -5.24078 69.8015 -11.4197 69.8015 -11.4197L68.5046 -15.3317C68.5046 -15.3317 53.3865 -9.8646 48.5832 -7.90086C45.5432 -6.65665 38.8134 -3.63804 34.1346 -1.52214C21.535 -17.1738 11.1558 1.3301 11.1558 1.3301C17.8098 -1.79508 26.4037 -0.786949 30.7046 0.0333609C29.7419 0.471205 29.1649 0.73471 29.1649 0.73471L29.1658 0.735954Z" fill="#5C6332"/>
<mask id="mask1_1_8536" style="mask-type:alpha" maskUnits="userSpaceOnUse" x="5" y="-16" width="65" height="54">
<path fill-rule="evenodd" clip-rule="evenodd" d="M29.1658 0.735881C24.249 0.750087 13.8249 1.43768 9.35193 6.72829C2.38557 14.9721 7.88517 23.7527 7.88517 23.7527L30.2758 2.28356L31.3897 3.83669C28.0724 7.21477 21.1347 15.051 20.9928 21.632C20.7997 30.7311 31.61 37.4668 31.61 37.4668C31.61 37.4668 31.0555 26.304 30.9653 18.5466C30.9333 15.6828 31.9725 8.96134 32.6194 5.07154L34.525 5.8197C33.887 9.63347 33.1592 16.1597 34.503 21.1771C36.4887 28.5871 42.7625 31.2304 42.7625 31.2304C42.7625 31.2304 43.7869 17.684 36.2435 3.37177C37.2405 2.6018 40.2369 0.57775 47.3579 -2.37943C54.2417 -5.24037 69.8018 -11.4193 69.8018 -11.4193L68.5049 -15.3313C68.5049 -15.3313 53.3868 -9.86418 48.5836 -7.90045C45.5435 -6.65623 38.8137 -3.63762 34.135 -1.52172C21.5354 -17.1734 11.1561 1.33051 11.1561 1.33051C17.8101 -1.79466 26.404 -0.786534 30.705 0.0337758C29.7422 0.471619 29.1652 0.735125 29.1652 0.735125L29.1658 0.735881Z" fill="#68BC98"/>
</mask>
<g mask="url(#mask1_1_8536)">
<path d="M16.3827 24.0062C16.566 23.2898 12.6025 19.6966 10.3539 17.5887C8.31367 15.6761 7.62486 16.4898 9.53875 18.4444C10.9589 19.897 13.9746 22.7875 15.0565 23.6632C15.4272 23.9651 16.2679 24.4558 16.3827 24.0062Z" fill="#8FA417"/>
<path d="M20.153 18.1272C20.3452 17.5182 17.0783 14.2226 15.2305 12.2962C13.552 10.5479 12.9195 11.2192 14.4847 12.9984C15.6483 14.322 18.1259 16.9594 19.0184 17.7674C19.3249 18.0471 20.0292 18.5094 20.153 18.1272Z" fill="#8FA417"/>
<path d="M22.0972 14.6357C22.2452 14.0849 19.4538 11.3976 17.8724 9.82118C16.4392 8.38963 15.9271 9.02104 17.268 10.4865C18.2634 11.5748 20.3836 13.7387 21.1449 14.3928C21.4064 14.6172 22.0045 14.9809 22.0972 14.6357Z" fill="#8FA417"/>
<path d="M9.77961 13.2936C9.6033 14.0111 13.62 17.5532 15.8947 19.629C17.9591 21.5136 18.6379 20.6898 16.6999 18.7633C15.2597 17.3307 12.2048 14.4833 11.1138 13.6207C10.7372 13.3207 9.89044 12.8421 9.77961 13.2936Z" fill="#8FA417"/>
<path d="M23.3638 12.022C22.4765 11.0785 21.5922 10.1139 21.0074 9.4481C19.255 7.45671 19.9638 6.70323 21.8416 8.65975C22.5206 9.36791 23.3749 10.2421 24.2041 11.1212C23.912 11.4389 23.6188 11.7535 23.3638 12.022Z" fill="#8FA417"/>
<path d="M37.5417 29.5152C37.2206 28.8489 31.8754 28.6742 28.8023 28.5223C26.014 28.3829 26.0137 29.4501 28.7338 29.7057C30.754 29.8956 34.9189 30.1472 36.3077 30.115C36.785 30.1039 37.7408 29.9342 37.5417 29.5152Z" fill="#8FA417"/>
<path d="M33.9852 22.1244C33.7392 21.5336 29.1182 21.1355 26.4694 20.8629C24.0622 20.614 24.014 21.5365 26.3569 21.8837C28.0983 22.1393 31.6885 22.5513 32.8927 22.5869C33.3038 22.5978 34.1412 22.4941 33.9852 22.1244Z" fill="#8FA417"/>
<path d="M33.2178 18.1982C32.9737 17.6837 29.1116 17.4388 26.8878 17.2595C24.8696 17.0957 24.8887 17.9089 26.8557 18.1599C28.3204 18.3467 31.3322 18.626 32.3359 18.6311C32.6798 18.6308 33.3688 18.5228 33.2178 18.1982Z" fill="#8FA417"/>
<path d="M25.1985 25.4129C25.5286 26.0762 30.8759 26.1766 33.9491 26.2884C36.7385 26.3906 36.7247 25.3214 34.0016 25.1069C31.9773 24.9451 27.8113 24.7507 26.4215 24.8C25.9452 24.8141 24.9905 24.9969 25.1985 25.4129Z" fill="#8FA417"/>
<path d="M32.4929 15.3848C31.2086 15.2386 29.9093 15.0773 29.0341 14.9459C26.4105 14.558 26.4658 13.5261 29.1628 13.8027C30.1383 13.9042 31.3554 14.0191 32.5555 14.1531C32.5359 14.5878 32.5174 15.0154 32.4929 15.3848Z" fill="#8FA417"/>
<path d="M50.9713 22.8049C50.5017 22.2348 45.2683 23.3443 42.2505 23.9333C39.5115 24.4667 39.765 25.5033 42.4657 25.0963C44.4735 24.7953 48.5764 24.0438 49.9154 23.6802C50.3798 23.5597 51.2677 23.165 50.9713 22.8049Z" fill="#8FA417"/>
<path d="M46.631 16.5247C46.2496 16.0089 41.6724 16.7303 39.0329 17.1003C36.636 17.4366 36.8094 18.3425 39.1661 18.1165C40.917 17.9475 44.5022 17.4881 45.6806 17.2345C46.0828 17.148 46.8683 16.8475 46.631 16.5247Z" fill="#8FA417"/>
<path d="M43.9419 12.8927C43.5845 12.4492 39.7744 13.1371 37.572 13.4959C35.5753 13.82 35.7859 14.6065 37.7575 14.3777C39.2217 14.2101 42.2142 13.7565 43.1891 13.5236C43.5231 13.443 44.1672 13.1693 43.9419 12.8927Z" fill="#8FA417"/>
<path d="M39.0192 21.6633C39.4968 22.2275 44.7132 21.0467 47.7241 20.4164C50.4571 19.8449 50.1886 18.8133 47.4928 19.2554C45.49 19.5816 41.3991 20.3893 40.063 20.772C39.6026 20.9046 38.7188 21.3113 39.0192 21.6633Z" fill="#8FA417"/>
<path d="M42.9077 10.222C41.6271 10.389 40.3274 10.5389 39.4439 10.6244C36.8055 10.8769 36.6122 9.86056 39.2959 9.48263C40.2696 9.34712 41.4731 9.16891 42.6725 9.00876C42.7572 9.4356 42.84 9.85641 42.9077 10.222Z" fill="#8FA417"/>
<path d="M16.8191 1.57778C16.462 1.67944 16.0999 1.7861 15.7398 1.88876C15.9229 0.496705 16.1745 -1.16225 16.3532 -2.16479C16.7438 -4.36156 17.61 -4.28748 17.3076 -2.02628C17.171 -0.997547 17.004 0.342337 16.8191 1.57778ZM19.9285 0.690742C19.6135 0.778433 19.2504 0.882087 18.8502 0.9947C19.1256 -1.28764 19.4795 -3.76658 19.8988 -3.93236C20.2499 -4.07218 20.3352 -3.28092 20.3167 -2.89345C20.2848 -2.21386 20.1157 -0.739454 19.9285 0.690742ZM25.2331 0.44073C25.3998 -0.638137 25.6733 -2.15047 25.8538 -3.00644C26.1895 -4.59294 26.8522 -4.5484 26.5836 -2.9206C26.4241 -1.96118 26.22 -0.62238 25.9981 0.441313C25.7414 0.442789 25.4838 0.44125 25.2331 0.44073ZM28.0577 0.447595C28.1494 0.00907289 28.2401 -0.392306 28.3147 -0.721437C28.8045 -2.83066 29.6416 -2.71347 29.234 -0.53782C29.1775 -0.234754 29.1149 0.100425 29.0534 0.448657C28.7325 0.447991 28.3986 0.448302 28.0577 0.447595ZM22.8226 0.423681C22.4777 0.420958 22.1719 0.415303 21.9202 0.411769C22.1401 -0.748304 22.4144 -2.07692 22.6039 -2.89573C23.0422 -4.77716 23.7871 -4.67623 23.4229 -2.7324C23.2564 -1.83424 23.0465 -0.654063 22.8226 0.423681Z" fill="#8FA417"/>
</g>
<g clip-path="url(#clip1_1_8536)">
<path d="M34.8269 73.6987C33.9817 71.5006 32.9179 66.6706 31.8103 60.6837C31.446 58.6592 31.0671 56.5189 30.7028 54.2919C30.4259 52.6144 30.149 50.9224 29.8867 49.1871C29.6973 48.0013 29.5224 46.8444 29.3621 45.6731C28.9978 43.3159 28.6626 40.9443 28.3566 38.6449C28.138 37.0398 27.9194 35.4635 27.73 33.9306C27.5988 32.8171 27.4531 31.7181 27.3365 30.6624C27.2053 29.6067 27.1033 28.58 27.0013 27.6256C26.5641 23.6632 26.3164 20.4673 26.3164 18.6163C26.3164 9.83837 37.3771 12.2389 37.3771 16.476C37.5083 19.5129 37.8289 22.81 38.2806 26.2228H38.2952C38.5429 28.1751 38.8489 30.1563 39.1841 32.1519C39.3444 33.1208 39.5193 34.0897 39.6942 35.0586C39.9128 36.2589 40.1459 37.4447 40.3791 38.6449C41.0494 42.0433 41.7781 45.3983 42.5358 48.6087C43.0167 50.7055 43.5122 52.7301 43.9931 54.6534C44.5323 56.7647 45.0569 58.7604 45.5378 60.5969C45.8293 61.6526 46.0916 62.6504 46.3539 63.5759C47.4469 67.466 48.3212 70.3148 48.7438 71.6019C51.4835 79.7435 37.6977 81.2474 34.8269 73.7132V73.6987Z" fill="#E8A220"/>
<path d="M39.1834 32.1521C38.2216 33.4391 36.4 32.4558 35.6276 31.1687C34.7679 29.6937 34.9573 25.9049 36.0648 25.2252C36.7497 24.8058 37.6678 25.5723 38.2799 26.223H38.2945C38.5422 28.1753 38.8482 30.1565 39.1834 32.1521Z" fill="#6C430F"/>
<path d="M28.3571 38.6308C28.1385 37.0256 27.9199 35.4494 27.7305 33.9165C27.7305 33.9165 32.452 31.8775 34.5651 33.9165C36.3138 35.6084 30.543 38.7031 28.3571 38.6308Z" fill="#6C430F"/>
<path d="M40.3803 38.6306C40.2491 39.6574 39.2582 41.1613 37.4657 40.4817C35.6587 39.802 36.9994 36.259 38.0632 35.0443C39.1416 33.8295 39.6954 35.0443 39.6954 35.0443C39.914 36.2446 40.1471 37.4304 40.3803 38.6306Z" fill="#6C430F"/>
<path d="M33.2831 42.5639C34.5363 42.4916 34.7258 41.0889 34.1137 40.2212C33.5017 39.3536 32.7147 39.18 32.263 40.3658C31.8112 41.5516 31.8987 42.6218 33.2977 42.5495L33.2831 42.5639Z" fill="#6C430F"/>
<path d="M29.5357 30.33C28.8799 30.706 28.0347 30.8217 27.3352 30.6482C27.204 29.5925 27.102 28.5657 27 27.6113C27.6266 27.4522 28.4864 27.6113 29.3899 27.9005C31.1824 28.5368 30.8909 29.5491 29.5357 30.33Z" fill="#6C430F"/>
<path d="M22.8186 12.08C19.4232 11.5883 18.4468 11.0099 19.3066 10.0699C20.1664 9.12995 24.4362 8.46474 26.4181 8.69612C28.2979 8.9275 29.2306 9.17334 29.3618 9.7807C29.4929 10.3881 27.2196 12.7163 22.8186 12.08Z" fill="#E8A220"/>
<path d="M11.8154 17.5754C11.8154 17.5754 25.8198 9.75191 28.1223 9.01439C30.4248 8.27687 35.9333 10.0845 36.7057 13.049C37.478 16.0136 38.3815 21.5233 34.1991 23.8804C30.6725 25.8761 15.8375 26.1798 13.8411 25.9339C10.2853 25.5001 8.49287 19.8458 11.8009 17.5609L11.8154 17.5754Z" fill="#E8A220"/>
<path d="M39.7959 17.6193C43.4536 19.1377 44.8235 19.0654 44.7069 17.4458C44.5903 15.8261 40.9471 12.4277 38.8487 11.4878C36.8668 10.6056 35.7738 10.302 35.1909 10.9382C34.608 11.5745 35.0743 15.667 39.7959 17.6337V17.6193Z" fill="#E8A220"/>
<path d="M29.7255 8.87007L27.015 9.47743C27.015 9.47743 26.8984 9.10145 26.8984 8.65315C26.913 8.13255 27.0879 7.53964 27.8748 7.38057C28.4723 7.26488 28.8949 7.51072 29.1864 7.84333C29.5798 8.30608 29.7255 8.87007 29.7255 8.87007Z" fill="#E8A220"/>
<path d="M29.1864 7.84333C29.1864 7.84333 27.3939 8.59531 26.8984 8.65315C26.913 8.13255 27.0879 7.53964 27.8748 7.38057C28.4723 7.26488 28.8949 7.51072 29.1864 7.84333Z" fill="#6C430F"/>
<path d="M36.0207 9.76642H36.0061C35.977 10.5907 35.6855 11.3716 35.6855 11.3716C35.6855 11.3716 33.281 10.7932 33.0478 9.67966C32.975 9.34705 33.2227 8.86983 33.6162 8.49384C34.0534 8.08893 34.68 7.82863 35.2338 8.06001C35.9041 8.34923 36.0498 9.07229 36.0207 9.76642Z" fill="#E8A220"/>
<path d="M36.0217 9.76642H36.0071C35.7885 9.76642 34.0252 9.67966 33.6172 8.49384C34.0544 8.08893 34.681 7.82863 35.2348 8.06001C35.9051 8.34923 36.0508 9.07229 36.0217 9.76642Z" fill="#6C430F"/>
<path d="M18.2728 20.3956C17.1652 18.183 13.9009 16.6646 9.57284 16.7948C5.24474 16.9249 5.08444 23.7939 8.98993 27.1055C8.98993 27.1055 9.60199 28.624 11.0155 28.783C12.4291 28.9421 16.4657 29.3904 17.617 28.3781C18.7682 27.3658 19.8466 23.5192 18.2728 20.3956Z" fill="#6C430F"/>
<path d="M16.9743 23.3745C16.9743 23.3745 18.1984 26.932 16.0708 27.7707C12.9668 28.9854 10.3438 27.3079 10.3438 27.3079C10.3438 27.3079 15.4442 29.0577 16.9598 23.3745H16.9743Z" fill="white"/>
<path d="M8.8452 24.7627C8.8452 24.7627 7.67938 24.1842 7.82511 23.2587C7.97083 22.3332 9.57383 23.6636 9.57383 23.6636C9.57383 23.6636 10.3753 21.6246 11.4246 22.1163C12.4738 22.608 10.8562 24.5313 10.8562 24.5313C10.4336 25.0664 9.55926 25.211 8.83062 24.7772L8.8452 24.7627Z" fill="#6C430F"/>
<path d="M8.80036 24.8641C8.74207 24.8352 7.56168 24.2278 7.72198 23.2444C7.7657 22.9986 7.89685 22.8974 7.99886 22.854C8.43604 22.6804 9.22297 23.2444 9.54357 23.4758C9.70387 23.1287 10.1556 22.2322 10.7823 21.9863C11.0154 21.8851 11.2632 21.8995 11.4963 22.0008C11.7149 22.102 11.8461 22.2611 11.9044 22.478C12.0792 23.2589 11.03 24.5315 10.9717 24.5893C10.928 24.6327 10.8551 24.6472 10.8114 24.5893C10.7677 24.5459 10.7531 24.4736 10.8114 24.4302C11.1029 24.0832 11.8169 23.0709 11.6858 22.5214C11.6566 22.3768 11.5546 22.2755 11.4089 22.2032C11.2486 22.1165 11.0591 22.1165 10.8843 22.2032C10.2139 22.478 9.71844 23.6927 9.71844 23.7072C9.71844 23.7361 9.67473 23.765 9.64558 23.7795C9.61644 23.794 9.57272 23.7795 9.54357 23.7506C9.15011 23.4324 8.4069 22.9552 8.11544 23.0709C8.07173 23.0854 7.99886 23.1287 7.98429 23.2878C7.85314 24.1121 8.93152 24.6616 8.94609 24.6761C9.00438 24.705 9.01895 24.7773 8.98981 24.8352C8.96066 24.893 8.90237 24.9075 8.84408 24.893L8.80036 24.8641Z" fill="#660409"/>
<path d="M10.0377 24.3003C10.0377 24.3003 10.0377 24.3003 10.0231 24.3003C9.96484 24.2714 9.95027 24.1991 9.97942 24.1412L10.7809 22.8542C10.7809 22.8542 10.8829 22.7819 10.9412 22.8108C10.9995 22.8397 11.0141 22.912 10.9849 22.9699L10.1834 24.2569C10.1834 24.2569 10.096 24.3292 10.0523 24.3003H10.0377Z" fill="#660409"/>
<path d="M9.20703 24.4882C9.20703 24.4882 9.17788 24.4882 9.17788 24.4738L8.34724 23.823C8.34724 23.823 8.28895 23.7073 8.33267 23.6639C8.37638 23.6206 8.43467 23.6061 8.49297 23.6495L9.32361 24.3002C9.32361 24.3002 9.3819 24.4159 9.33818 24.4593C9.30904 24.5027 9.25075 24.5172 9.20703 24.5027V24.4882Z" fill="#660409"/>
<path d="M26.3041 13.7144C26.2166 11.7332 24.5845 10.0412 21.8448 10.5185C18.0268 11.1692 18.2599 17.0404 21.3348 17.6044C24.4096 18.1829 26.4206 16.6644 26.3041 13.7144Z" fill="white"/>
<path d="M23.0713 16.6212C24.528 16.6212 25.7089 15.4493 25.7089 14.0037C25.7089 12.5581 24.528 11.3862 23.0713 11.3862C21.6145 11.3862 20.4336 12.5581 20.4336 14.0037C20.4336 15.4493 21.6145 16.6212 23.0713 16.6212Z" fill="#660409"/>
<path d="M21.3649 13.4251C21.9202 13.4251 22.3704 12.9783 22.3704 12.4273C22.3704 11.8762 21.9202 11.4294 21.3649 11.4294C20.8096 11.4294 20.3594 11.8762 20.3594 12.4273C20.3594 12.9783 20.8096 13.4251 21.3649 13.4251Z" fill="white"/>
<path d="M34.7849 14.7269C34.61 13.3242 32.8758 10.9091 30.2382 11.7479C25.2106 13.3386 27.6734 18.776 30.7774 19.0941C33.9251 19.4123 35.018 16.6213 34.7849 14.7269Z" fill="white"/>
<path d="M31.7705 17.8935C33.2272 17.8935 34.4081 16.7216 34.4081 15.276C34.4081 13.8304 33.2272 12.6586 31.7705 12.6586C30.3137 12.6586 29.1328 13.8304 29.1328 15.276C29.1328 16.7216 30.3137 17.8935 31.7705 17.8935Z" fill="#660409"/>
<path d="M30.0797 14.6979C30.6351 14.6979 31.0853 14.2512 31.0853 13.7001C31.0853 13.149 30.6351 12.7023 30.0797 12.7023C29.5244 12.7023 29.0742 13.149 29.0742 13.7001C29.0742 14.2512 29.5244 14.6979 30.0797 14.6979Z" fill="white"/>
</g>
</g>
<rect x="1.59375" y="2" width="40" height="40" rx="20" stroke="#FCFBF9" stroke-width="2.5"/>
<defs>
<clipPath id="clip0_1_8536">
<rect x="1.59375" y="2" width="40" height="40" rx="20" fill="white"/>
</clipPath>
<clipPath id="clip1_1_8536">
<rect width="42.9167" height="71.25" fill="white" transform="translate(6.17578 7.35156)"/>
</clipPath>
</defs>
</svg>
